<svg xmlns="http://www.w3.org/2000/svg" viewBox="0 0 500 500"><g id="freepik--background-simple--inject-55"><path d="M62.63,126.79Q65,123,67.49,119.28c22.51-32.62,60-54.95,96.41-65.07a210.21,210.21,0,0,1,48.69-7.35C319.85,43,359.25,130.24,393.81,152.73s87.59,60.9,80.94,141.59c-5.05,61.35-40.44,120-105.07,146.71a184.6,184.6,0,0,1-22.43,7.63,216,216,0,0,1-47.38,7.18C251,458,211.33,446.37,172.52,417.12c-9-6.8-18-14.47-29.7-15.31-8.51-.61-16.58,2.4-7.69,10.51,10.46,9.54-1.6,28.29-28.14,15.26-44.33-21.76-62.56-68.7-71.15-116.43C25.3,252.56,30.41,179.7,62.63,126.79Z" style="fill:#BEF264"></path><path d="M62.63,126.79Q65,123,67.49,119.28c22.51-32.62,60-54.95,96.41-65.07a210.21,210.21,0,0,1,48.69-7.35C319.85,43,359.25,130.24,393.81,152.73s87.59,60.9,80.94,141.59c-5.05,61.35-40.44,120-105.07,146.71a184.6,184.6,0,0,1-22.43,7.63,216,216,0,0,1-47.38,7.18C251,458,211.33,446.37,172.52,417.12c-9-6.8-18-14.47-29.7-15.31-8.51-.61-16.58,2.4-7.69,10.51,10.46,9.54-1.6,28.29-28.14,15.26-44.33-21.76-62.56-68.7-71.15-116.43C25.3,252.56,30.41,179.7,62.63,126.79Z" style="fill:#fff;opacity:0.7000000000000001"></path></g><g id="freepik--Cactus--inject-55"><path d="M180.49,341.1c-1.41-8.9-4.36-25-4.36-25s-2.18,2.17-3.61,2.56c-1.39-3.49-2.83-6.94-4.32-10.32-2.51-8.27-5.49-18.61-5.49-18.61l-1.33,4.33c-2.23-4.31-4.53-8.39-6.86-12.16a160.1,160.1,0,0,0-10.33-14.81c-3.4-5.5-11.92-19.09-13.4-19.46s1,5.15,1.68,6.6c-16.88-15.71-32.89-18.55-40.78-4.75-3.9,6.83-5.31,16.86-4.51,28.6L85,274.93s0,6.93.47,10.17,13.41,42.1,13.41,42.1l-5.09-1.39,25.45,41.64-8.79-1.85s17.11,9.71,18.5,11.56c.63.84,3.7,3,6.88,5.09,21.46,22.15,45.23,34.62,52.08,22.64C193.29,395.46,189.27,369.06,180.49,341.1Z" style="fill:#BEF264"></path><path d="M179.21,410c-10.49,0-27.33-10.5-43.71-27.4-6.11-4.05-6.75-4.9-7-5.18-1-1.29-11.5-7.54-18.35-11.43a.5.5,0,0,1,.35-.92l7.66,1.61L93.36,326.07a.5.5,0,0,1,0-.56.53.53,0,0,1,.54-.18l4.18,1.14c-2-6-12.71-38.29-13.14-41.3a102.07,102.07,0,0,1-.46-10.24.5.5,0,0,1,.35-.48.51.51,0,0,1,.56.19l1.17,1.69c-.57-11.4,1-20.75,4.68-27.1,2.94-5.15,7-8.15,12.13-8.92,7.76-1.19,17.51,3,27.61,11.91-1.7-4-1.2-4.56-1-4.81a.86.86,0,0,1,.91-.26c1.21.3,5.82,6.92,13.71,19.68a157.57,157.57,0,0,1,10.32,14.81c2.1,3.37,4.22,7.11,6.32,11.11l1-3.17a.55.55,0,0,1,.49-.35.49.49,0,0,1,.47.36c0,.1,3,10.43,5.49,18.61,1.39,3.14,2.78,6.46,4.12,9.82a13.29,13.29,0,0,0,3-2.28.53.53,0,0,1,.51-.12.52.52,0,0,1,.34.39c0,.16,3,16.17,4.36,25,7.54,24,13.44,53.51,7.35,64.15a9.41,9.41,0,0,1-7.37,4.79A14,14,0,0,1,179.21,410Zm-65.77-43.3c5,2.89,14.79,8.65,15.9,10.12.28.37,1.53,1.51,6.75,5l.09.07c17.13,17.68,34.67,28.29,44.66,27a8.46,8.46,0,0,0,6.63-4.3c4.88-8.54,1.95-33.42-7.46-63.39a.64.64,0,0,1,0-.07c-1.2-7.59-3.55-20.58-4.19-24.09a9.77,9.77,0,0,1-3.16,2.05.5.5,0,0,1-.59-.3c-1.39-3.5-2.84-7-4.31-10.29-1.91-6.31-4.1-13.83-5-17.07l-.84,2.73a.51.51,0,0,1-.44.35.49.49,0,0,1-.48-.27c-2.28-4.39-4.58-8.47-6.85-12.13A158.78,158.78,0,0,0,143.8,267.4c-8.16-13.19-12.07-18.54-13-19.22,0,.67.68,2.76,2.16,5.83a.5.5,0,0,1-.79.58c-10.51-9.78-20.67-14.5-28.59-13.3-4.79.73-8.63,3.57-11.41,8.43-3.73,6.52-5.27,16.31-4.45,28.33a.5.5,0,0,1-.91.32l-1.26-1.82c0,2.24.13,6.27.44,8.48.45,3.16,13.27,41.62,13.4,42a.5.5,0,0,1-.11.5.49.49,0,0,1-.5.14l-3.87-1.05,24.78,40.56a.5.5,0,0,1,0,.55.52.52,0,0,1-.52.2Z" style="fill:#263238"></path><path d="M187.9,404.89c3.51-6.14,3-19.47-.16-35.75-6.6,7.35-17.73,21-23.88,35.47C174.93,410.64,184.07,411.6,187.9,404.89Z" style="fill:#263238"></path><path d="M179.19,410.05c-4.2,0-9.45-1.67-15.57-5a.49.49,0,0,1-.22-.63c6.25-14.73,17.7-28.63,24-35.61a.5.5,0,0,1,.86.24c2.41,12.32,4.39,28.59.1,36.09C186.46,408.41,183.35,410.05,179.19,410.05Zm-14.69-5.66c6.79,3.64,18.41,8.22,23,.25h0c3.16-5.53,3.15-17.73,0-34.41C181.16,377.31,170.52,390.47,164.5,404.39Z" style="fill:#263238"></path><path d="M104.23,284.63c1.53,2.48,2,5.85,1,7.52s-3,1-4.51-1.45-2-5.84-1-7.52S102.69,282.16,104.23,284.63Z" style="fill:#BEF264"></path><path d="M103.82,293.58c-1.18,0-2.45-.95-3.49-2.62-1.64-2.65-2.1-6.18-1-8a2.15,2.15,0,0,1,1.84-1.18h0c1.19,0,2.46.95,3.49,2.62h0c1.65,2.66,2.11,6.18,1,8a2.12,2.12,0,0,1-1.84,1.18Zm-2.66-10.83h0a1.17,1.17,0,0,0-1,.68c-.86,1.5-.39,4.71,1,7,.82,1.32,1.83,2.14,2.64,2.14h0a1.15,1.15,0,0,0,1-.68c.86-1.5.38-4.71-1-7C103,283.57,102,282.75,101.16,282.75Z" style="fill:#263238"></path><path d="M113.78,325.19c1.54,2.48,2,5.85,1,7.52s-3,1-4.51-1.45-2-5.84-1-7.52S112.25,322.71,113.78,325.19Z" style="fill:#BEF264"></path><path d="M113.38,334.14c-1.19,0-2.46-.95-3.49-2.62-1.64-2.65-2.11-6.18-1-8a2.14,2.14,0,0,1,1.84-1.18c1.21,0,2.49.93,3.53,2.62,1.64,2.66,2.11,6.18,1.05,8a2.14,2.14,0,0,1-1.84,1.18Zm-2.66-10.83h0a1.14,1.14,0,0,0-1,.68c-.86,1.5-.39,4.71,1,7,.82,1.32,1.83,2.14,2.64,2.14h0a1.14,1.14,0,0,0,1-.68c.86-1.5.39-4.71-1-7C112.54,324.13,111.53,323.31,110.72,323.31Z" style="fill:#263238"></path><path d="M134,322.7c1.54,2.47,2,5.84,1,7.52s-3,1-4.51-1.46-2-5.84-1-7.52S132.51,320.22,134,322.7Z" style="fill:#BEF264"></path><path d="M133.64,331.65c-1.19,0-2.46-1-3.49-2.62-1.65-2.66-2.11-6.19-1.05-8a2.15,2.15,0,0,1,1.84-1.19c1.18,0,2.48.94,3.53,2.62h0c1.64,2.66,2.1,6.19,1.05,8a2.17,2.17,0,0,1-1.84,1.19ZM131,320.81h0a1.19,1.19,0,0,0-1,.68c-.86,1.51-.38,4.72,1,7,.83,1.34,1.85,2.15,2.66,2.15a1.17,1.17,0,0,0,1-.68c.86-1.51.39-4.72-1-7C132.8,321.63,131.79,320.81,131,320.81Z" style="fill:#263238"></path><path d="M145.89,366.73c1.53,2.48,2,5.84,1,7.52s-3,1-4.51-1.45-2-5.85-1-7.52S144.35,364.25,145.89,366.73Z" style="fill:#BEF264"></path><path d="M145.48,375.68c-1.19,0-2.45-.95-3.49-2.62-1.64-2.66-2.1-6.18-1.05-8a2.14,2.14,0,0,1,1.84-1.18c1.22,0,2.49.93,3.53,2.61h0c1.65,2.65,2.11,6.18,1.05,8a2.12,2.12,0,0,1-1.84,1.18Zm-2.66-10.83h0a1.13,1.13,0,0,0-1,.68c-.86,1.5-.39,4.71,1,7,.83,1.34,1.85,2.12,2.66,2.15a1.19,1.19,0,0,0,1-.68c.86-1.5.38-4.71-1-7C144.64,365.67,143.63,364.85,142.82,364.85Z" style="fill:#263238"></path><path d="M170,359c1.54,2.48,2,5.85,1.05,7.52s-3,1-4.52-1.45-2-5.84-1-7.52S168.44,356.55,170,359Z" style="fill:#BEF264"></path><path d="M169.57,368c-1.19,0-2.46-1-3.49-2.62-1.65-2.65-2.11-6.18-1.05-8a2.18,2.18,0,0,1,1.84-1.18c1.19,0,2.49.94,3.53,2.62,1.64,2.66,2.11,6.19,1,8a2.14,2.14,0,0,1-1.84,1.18Zm-2.66-10.83h0a1.16,1.16,0,0,0-1,.68c-.86,1.51-.39,4.71,1,7,.83,1.34,1.86,2.12,2.66,2.14a1.12,1.12,0,0,0,1-.68c.86-1.5.39-4.71-1-7C168.73,358,167.72,357.14,166.91,357.14Z" style="fill:#263238"></path><path d="M155.88,305.42c1.53,2.47,2,5.84,1,7.52s-3,1-4.51-1.46-2-5.84-1-7.52S154.35,302.94,155.88,305.42Z" style="fill:#BEF264"></path><path d="M155.48,314.37c-1.19,0-2.46-.95-3.49-2.62-1.65-2.66-2.11-6.19-1.05-8a2.12,2.12,0,0,1,1.84-1.18c1.19,0,2.48.93,3.53,2.61,1.64,2.66,2.1,6.19,1.05,8a2.18,2.18,0,0,1-1.84,1.19Zm-2.66-10.84h0a1.15,1.15,0,0,0-1,.67c-.86,1.51-.38,4.72,1,7,.82,1.33,1.83,2.15,2.64,2.15h0a1.17,1.17,0,0,0,1-.68c.86-1.51.39-4.72-1-7h0C154.64,304.35,153.63,303.53,152.82,303.53Z" style="fill:#263238"></path><path d="M123.19,263.25c1.54,2.47,2,5.84,1,7.52s-3,1-4.51-1.46-2-5.84-1-7.52S121.66,260.77,123.19,263.25Z" style="fill:#BEF264"></path><path d="M122.79,272.2c-1.19,0-2.46-1-3.49-2.62-1.65-2.66-2.11-6.19-1-8a2.15,2.15,0,0,1,1.84-1.19c1.18,0,2.48.94,3.53,2.62,1.64,2.66,2.1,6.19,1,8a2.18,2.18,0,0,1-1.85,1.19Zm-2.66-10.84h0a1.19,1.19,0,0,0-1,.68c-.86,1.51-.38,4.72,1,7,.82,1.34,1.84,2.14,2.66,2.15a1.17,1.17,0,0,0,1-.68c.86-1.51.39-4.72-1-7C122,262.18,120.94,261.36,120.13,261.36Z" style="fill:#263238"></path><path d="M337.93,171.87c0,44.38-33.69,102.42-62.43,102.42s-62.43-58-62.43-102.42,28-80.36,62.43-80.36S337.93,127.49,337.93,171.87Z" style="fill:#BEF264"></path><path d="M275.5,274.79c-28.23,0-62.93-56.75-62.93-102.92C212.57,127.28,240.8,91,275.5,91s62.93,36.27,62.93,80.86C338.43,218,303.73,274.79,275.5,274.79ZM275.5,92c-34.15,0-61.93,35.82-61.93,79.86,0,21,7.62,46.3,20.37,67.59,12.88,21.5,28.41,34.33,41.56,34.33s28.69-12.83,41.56-34.33c12.76-21.29,20.37-46.56,20.37-67.59C337.43,127.83,309.65,92,275.5,92Z" style="fill:#263238"></path><path d="M262,123.74a5.28,5.28,0,1,1-5.28-5.27A5.29,5.29,0,0,1,262,123.74Z" style="fill:#BEF264"></path><path d="M256.75,129.52a5.78,5.78,0,1,1,5.78-5.78A5.79,5.79,0,0,1,256.75,129.52Zm0-10.55a4.78,4.78,0,1,0,4.78,4.77A4.78,4.78,0,0,0,256.75,119Z" style="fill:#263238"></path><path d="M239.32,156.08a5.28,5.28,0,1,1-5.28-5.27A5.27,5.27,0,0,1,239.32,156.08Z" style="fill:#BEF264"></path><path d="M234,161.86a5.78,5.78,0,1,1,5.78-5.78A5.78,5.78,0,0,1,234,161.86Zm0-10.55a4.78,4.78,0,1,0,4.78,4.77A4.78,4.78,0,0,0,234,151.31Z" style="fill:#263238"></path><path d="M271.15,174.68a5.28,5.28,0,1,1-5.27-5.27A5.28,5.28,0,0,1,271.15,174.68Z" style="fill:#BEF264"></path><path d="M265.88,180.46a5.78,5.78,0,1,1,5.77-5.78A5.78,5.78,0,0,1,265.88,180.46Zm0-10.55a4.78,4.78,0,1,0,4.77,4.77A4.78,4.78,0,0,0,265.88,169.91Z" style="fill:#263238"></path><path d="M248.65,211.25a5.28,5.28,0,1,1-5.28-5.28A5.27,5.27,0,0,1,248.65,211.25Z" style="fill:#BEF264"></path><path d="M243.37,217a5.78,5.78,0,1,1,5.78-5.77A5.78,5.78,0,0,1,243.37,217Zm0-10.55a4.78,4.78,0,1,0,4.78,4.78A4.78,4.78,0,0,0,243.37,206.47Z" style="fill:#263238"></path><path d="M290.78,230.68a5.28,5.28,0,1,1-5.27-5.27A5.27,5.27,0,0,1,290.78,230.68Z" style="fill:#BEF264"></path><path d="M285.51,236.46a5.78,5.78,0,1,1,5.77-5.78A5.78,5.78,0,0,1,285.51,236.46Zm0-10.55a4.78,4.78,0,1,0,4.77,4.77A4.78,4.78,0,0,0,285.51,225.91Z" style="fill:#263238"></path><path d="M318.66,186.49a5.28,5.28,0,1,1-5.27-5.27A5.27,5.27,0,0,1,318.66,186.49Z" style="fill:#BEF264"></path><path d="M313.39,192.27a5.78,5.78,0,1,1,5.77-5.78A5.78,5.78,0,0,1,313.39,192.27Zm0-10.55a4.78,4.78,0,1,0,4.77,4.77A4.78,4.78,0,0,0,313.39,181.72Z" style="fill:#263238"></path><path d="M309.05,130.39a5.28,5.28,0,1,1-5.28-5.27A5.27,5.27,0,0,1,309.05,130.39Z" style="fill:#BEF264"></path><path d="M303.77,136.17a5.78,5.78,0,1,1,5.78-5.78A5.78,5.78,0,0,1,303.77,136.17Zm0-10.55a4.78,4.78,0,1,0,4.78,4.77A4.78,4.78,0,0,0,303.77,125.62Z" style="fill:#263238"></path><path d="M385,113.12l2.69-1.49s-5.89-1.93-9.67-3a34.78,34.78,0,0,0-13-2.45l2.2-1.8S356.81,106,355,106.82c-.66.29-2.4,1-4.34,1.82-1.17.41-2.31.89-3.43,1.41l-3.86,1.58,2.61-5s-2.21,2-3.62,3.21-3.21,5-3.21,5l-.1.48c-9.29,8-14.43,20.23-8.81,25.78,2.73,2.68,8.35,4.16,15,4.55l6.57,2.29-1.8-1.6h8.42c2.81,0,18.86-4,18.86-4l-3.22-1.26,1.21-.55c1.31-.35,3.26-.91,5.22-1.6,3.41-1.21,8.23-8.63,8.23-8.63l-2.43,1.34C390.56,125.5,390.43,118.46,385,113.12Z" style="fill:#BEF264"></path><path d="M351.79,148.44a.44.44,0,0,1-.16,0s-3.12-1.1-6.51-2.27c-7.19-.44-12.6-2.11-15.23-4.7a9,9,0,0,1-2.48-6.94c.2-6.1,4.59-13.72,11.19-19.45l.07-.32a.35.35,0,0,1,0-.11c.08-.16,1.87-3.92,3.34-5.18s3.58-3.18,3.6-3.2a.49.49,0,0,1,.64,0,.51.51,0,0,1,.14.63l-2,3.8,2.6-1.06c1.19-.55,2.33-1,3.45-1.42,1.91-.79,3.65-1.52,4.31-1.81,1.85-.82,11.94-2.38,12.37-2.44a.48.48,0,0,1,.53.29.51.51,0,0,1-.14.59l-1.16.94a34.64,34.64,0,0,1,11.82,2.46c3.69,1,9.58,2.94,9.64,3a.5.5,0,0,1,.34.42.51.51,0,0,1-.25.49l-2.12,1.17c4.5,4.8,5.18,11.14,1.9,17l.74-.41a.49.49,0,0,1,.6.1.5.5,0,0,1,.06.61c-.2.31-4.95,7.58-8.48,8.83-2,.7-4,1.26-5.26,1.61l-.07,0,2.13.83a.49.49,0,0,1,.32.5.48.48,0,0,1-.38.45c-.65.17-16.14,4-19,4H351.3l.83.73a.5.5,0,0,1,.09.63A.5.5,0,0,1,351.79,148.44ZM339.63,115l-.09.43a.5.5,0,0,1-.16.27c-6.37,5.49-10.78,13.06-11,18.85a7.94,7.94,0,0,0,2.18,6.19c2.47,2.43,7.67,4,14.66,4.41a.31.31,0,0,1,.13,0l4.21,1.46a.51.51,0,0,1-.07-.48.5.5,0,0,1,.47-.32h8.42c2.21,0,13.14-2.62,17.21-3.62l-1.76-.68a.5.5,0,0,1,0-.93c.41-.17.81-.36,1.2-.54,1.38-.38,3.32-.94,5.28-1.63,2.21-.78,5.14-4.45,6.76-6.68l-.56.31a.52.52,0,0,1-.62-.11.5.5,0,0,1,0-.62c4.32-6.18,3.87-12.86-1.21-17.86a.51.51,0,0,1-.14-.42.47.47,0,0,1,.25-.37l1.69-.94c-1.89-.6-5.81-1.85-8.56-2.61A34.56,34.56,0,0,0,365,106.71a.49.49,0,0,1-.47-.33.5.5,0,0,1,.15-.55l.77-.64c-3.5.57-9.09,1.56-10.28,2.08-.67.3-2.42,1-4.36,1.83-1.12.4-2.23.86-3.41,1.41l-3.88,1.59A.51.51,0,0,1,343,112a.52.52,0,0,1-.08-.57l1.34-2.57-1.57,1.38C341.47,111.25,339.85,114.55,339.63,115Z" style="fill:#263238"></path><path d="M372.12,114.87a2.64,2.64,0,0,1-2.85-.44,1.21,1.21,0,0,1,.31-2.06,2.64,2.64,0,0,1,2.85.44A1.21,1.21,0,0,1,372.12,114.87Z" style="fill:#BEF264"></path><path d="M371.06,115.61a3.07,3.07,0,0,1-2.14-.83,1.69,1.69,0,0,1,.44-2.85,3.1,3.1,0,0,1,3.42.53,1.69,1.69,0,0,1-.43,2.85h0A2.84,2.84,0,0,1,371.06,115.61Zm1.06-.74h0Zm-1.48-2.24a1.81,1.81,0,0,0-.83.19.71.71,0,0,0-.19,1.25,2.12,2.12,0,0,0,2.27.35h0a.71.71,0,0,0,.19-1.25A2.07,2.07,0,0,0,370.64,112.63Z" style="fill:#263238"></path><path d="M357,114.45a2.64,2.64,0,0,1-2.85-.45,1.2,1.2,0,0,1,.32-2,2.62,2.62,0,0,1,2.85.44A1.21,1.21,0,0,1,357,114.45Z" style="fill:#BEF264"></path><path d="M355.91,115.18a3.08,3.08,0,0,1-2.14-.82,1.78,1.78,0,0,1-.57-1.55,1.81,1.81,0,0,1,1-1.31,3.14,3.14,0,0,1,3.43.53,1.71,1.71,0,0,1-.44,2.86A2.84,2.84,0,0,1,355.91,115.18Zm-.41-3a1.87,1.87,0,0,0-.83.18.72.72,0,0,0-.2,1.26,2.14,2.14,0,0,0,2.28.35.79.79,0,0,0,.47-.57.78.78,0,0,0-.28-.68A2.11,2.11,0,0,0,355.5,112.21Z" style="fill:#263238"></path><path d="M359.05,124.82a2.62,2.62,0,0,1-2.85-.44,1.2,1.2,0,0,1,.31-2,2.62,2.62,0,0,1,2.85.44A1.2,1.2,0,0,1,359.05,124.82Z" style="fill:#BEF264"></path><path d="M358,125.56a3.1,3.1,0,0,1-2.13-.82,1.81,1.81,0,0,1-.58-1.55,1.79,1.79,0,0,1,1-1.31,3.14,3.14,0,0,1,3.43.53,1.7,1.7,0,0,1-.44,2.86A2.81,2.81,0,0,1,358,125.56Zm-.41-3a1.87,1.87,0,0,0-.83.18.78.78,0,0,0-.48.57.82.82,0,0,0,.29.69,2.12,2.12,0,0,0,2.27.35.83.83,0,0,0,.48-.57.85.85,0,0,0-.29-.69A2.13,2.13,0,0,0,357.57,122.59Z" style="fill:#263238"></path><path d="M342.68,125.09a2.6,2.6,0,0,1-2.84-.44,1.2,1.2,0,0,1,.31-2.05A2.62,2.62,0,0,1,343,123,1.2,1.2,0,0,1,342.68,125.09Z" style="fill:#BEF264"></path><path d="M341.62,125.83a3.08,3.08,0,0,1-2.13-.82,1.7,1.7,0,0,1,.43-2.86,3.14,3.14,0,0,1,3.43.53,1.71,1.71,0,0,1-.44,2.86A2.81,2.81,0,0,1,341.62,125.83Zm-.41-3a1.87,1.87,0,0,0-.83.18.8.8,0,0,0-.48.57.78.78,0,0,0,.29.69,2.12,2.12,0,0,0,2.27.35.83.83,0,0,0,.48-.57.82.82,0,0,0-.29-.68A2.09,2.09,0,0,0,341.21,122.86Z" style="fill:#263238"></path><path d="M347,138a2.64,2.64,0,0,1-2.85-.44,1.21,1.21,0,0,1,.32-2.06,2.62,2.62,0,0,1,2.84.44A1.21,1.21,0,0,1,347,138Z" style="fill:#BEF264"></path><path d="M345.92,138.78a3.07,3.07,0,0,1-2.14-.83,1.7,1.7,0,0,1,.44-2.85,3.08,3.08,0,0,1,3.42.53,1.81,1.81,0,0,1,.58,1.55,1.78,1.78,0,0,1-1,1.3A2.84,2.84,0,0,1,345.92,138.78Zm-.41-3a1.82,1.82,0,0,0-.84.19.71.71,0,0,0-.19,1.25,2.12,2.12,0,0,0,2.27.35.79.79,0,0,0,.48-.56.81.81,0,0,0-.29-.69A2.06,2.06,0,0,0,345.51,135.8Z" style="fill:#263238"></path><path d="M366.92,137.87a2.62,2.62,0,0,1-2.85-.44,1.21,1.21,0,0,1,.31-2.06,2.64,2.64,0,0,1,2.85.45A1.2,1.2,0,0,1,366.92,137.87Z" style="fill:#BEF264"></path><path d="M365.86,138.61a3.1,3.1,0,0,1-2.14-.82,1.7,1.7,0,0,1,.44-2.86,3.1,3.1,0,0,1,3.42.53,1.7,1.7,0,0,1-.43,2.86A2.84,2.84,0,0,1,365.86,138.61Zm1.06-.74h0Zm-1.48-2.23a1.94,1.94,0,0,0-.83.18.83.83,0,0,0-.48.57.82.82,0,0,0,.29.68,2.15,2.15,0,0,0,2.27.36h0a.85.85,0,0,0,.48-.57.81.81,0,0,0-.29-.69A2.11,2.11,0,0,0,365.44,135.64Z" style="fill:#263238"></path><path d="M381.42,127a2.62,2.62,0,0,1-2.85-.44,1.21,1.21,0,0,1,.31-2.06,2.64,2.64,0,0,1,2.85.45A1.2,1.2,0,0,1,381.42,127Z" style="fill:#BEF264"></path><path d="M380.36,127.75a3.1,3.1,0,0,1-2.14-.82,1.7,1.7,0,0,1,.44-2.86,3.1,3.1,0,0,1,3.42.53,1.81,1.81,0,0,1,.58,1.55,1.79,1.79,0,0,1-1,1.31A2.84,2.84,0,0,1,380.36,127.75Zm-.42-3a1.8,1.8,0,0,0-.83.18.83.83,0,0,0-.48.57.82.82,0,0,0,.29.68,2.13,2.13,0,0,0,2.27.36.72.72,0,0,0,.19-1.26A2.11,2.11,0,0,0,379.94,124.78Z" style="fill:#263238"></path><path d="M249.45,90.7s4.89,8.06,2.43,14.41-8.39,8.82-12.69,9.24-15.27-7.44-15.27-7.44l24-18.85Z" style="fill:#BEF264"></path><path d="M238.85,114.87c-4.64,0-14.78-7.23-15.22-7.55a.48.48,0,0,1-.21-.39.53.53,0,0,1,.19-.41l24-18.85a.48.48,0,0,1,.4-.1.52.52,0,0,1,.34.24l1.54,2.64c.24.39,5,8.35,2.46,14.84-2.46,6.34-8.38,9.1-13.11,9.56Zm-14.09-8c2.25,1.56,10.84,7.31,14.38,7,4.42-.44,10-3,12.27-8.93S249.07,91,249,91h0l-1.26-2.15Z" style="fill:#263238"></path><path d="M215.9,78.13s-1.16-2.14-.05-5.69a11.19,11.19,0,0,1,2.73-5l3.07,2.76a19.76,19.76,0,0,1,1.85-4.45,9,9,0,0,1,2.89-2.06s2.11,1.06,3.34,4.78L231,72.22s1.56-3,3.7-4.15a10.88,10.88,0,0,1,3.79-1.31l1.07,5.56s3.14-1.93,5.17-1.57-.13-.38,2,.36.79,2.9.05,5.06a36.65,36.65,0,0,1-1.48,3.69l4.94.2s2.33,5.55,1.23,9.1-6.76,7.42-6.76,7.42,1.4,1,.8,3.53-5.13,6.64-8.53,8.44-9.5-.53-9.5-.53-3.38,3.07-5.54,2.33-3-4.27-3-4.27a11,11,0,0,1-6-1.33,18.89,18.89,0,0,1-4.6-4.13l2.51-2.56s-5.72-1.84-6.75-3.6l-1-1.77,4.63-5s-3.59-4.27-3.87-6.92a13.91,13.91,0,0,1,0-3.8S211.45,75.65,215.9,78.13Z" style="fill:#fff"></path><path d="M222.66,111a2.91,2.91,0,0,1-.89-.14c-2-.67-2.88-3.22-3.18-4.23a11.32,11.32,0,0,1-5.84-1.43,19.14,19.14,0,0,1-4.74-4.25.5.5,0,0,1,0-.65l1.95-2c-1.66-.59-5.37-2-6.26-3.57l-1-1.76a.51.51,0,0,1,.06-.6l4.34-4.66c-.87-1.09-3.46-4.5-3.7-6.85a14,14,0,0,1,0-4,.49.49,0,0,1,.4-.39c.29-.06,6.71-1.16,11.28.68a9.31,9.31,0,0,1,.31-4.89,11.65,11.65,0,0,1,2.88-5.2.5.5,0,0,1,.66,0l2.49,2.23a16.34,16.34,0,0,1,1.7-3.86,9.51,9.51,0,0,1,3.09-2.21.51.51,0,0,1,.42,0c.1,0,2.31,1.2,3.59,5.07l.89,2.68a10.48,10.48,0,0,1,3.33-3.39,11.35,11.35,0,0,1,4-1.37.52.52,0,0,1,.54.41l.94,4.88c1.06-.57,3.26-1.59,4.9-1.29l.59.09c.19-.17.32-.12,1.51.29a2.08,2.08,0,0,1,1.32,1.07c.46,1,0,2.21-.54,3.52-.14.36-.29.73-.41,1.1-.46,1.33-.91,2.4-1.19,3.06l4.19.17a.5.5,0,0,1,.44.31c.1.23,2.39,5.75,1.25,9.44-1,3.1-5.06,6.31-6.48,7.34a4.11,4.11,0,0,1,.52,3.58c-.64,2.69-5.16,6.85-8.77,8.77-3.17,1.68-8.35,0-9.63-.41C226.83,109.23,224.61,111,222.66,111ZM219,105.58a.5.5,0,0,1,.49.39s.76,3.27,2.63,3.91c1.54.52,4.17-1.43,5-2.23a.48.48,0,0,1,.51-.1c.06,0,5.93,2.24,9.09.56s7.71-5.75,8.27-8.11c.51-2.15-.56-3-.6-3a.52.52,0,0,1-.21-.41.53.53,0,0,1,.22-.41c.05,0,5.53-3.8,6.56-7.14.9-2.89-.65-7.3-1.1-8.47l-4.61-.19a.52.52,0,0,1-.41-.24.51.51,0,0,1,0-.48A35.79,35.79,0,0,0,246.3,76c.13-.38.28-.77.43-1.15.41-1,.84-2.14.57-2.73a1.2,1.2,0,0,0-.74-.55l-.77-.26a2.93,2.93,0,0,1-1.19-.08c-1.5-.26-4,1-4.82,1.51a.53.53,0,0,1-.46,0,.5.5,0,0,1-.29-.36l-1-5.09a11.34,11.34,0,0,0-3.15,1.18c-2,1.07-3.48,3.91-3.5,3.94a.49.49,0,0,1-.48.26.48.48,0,0,1-.43-.34l-1.23-3.72a8.39,8.39,0,0,0-2.9-4.36,7.92,7.92,0,0,0-2.46,1.79,18.63,18.63,0,0,0-1.77,4.29.52.52,0,0,1-.35.34.54.54,0,0,1-.47-.11l-2.7-2.43a12.08,12.08,0,0,0-2.29,4.41,7.43,7.43,0,0,0,0,5.32.49.49,0,0,1-.09.59.5.5,0,0,1-.59.08c-3.71-2.07-9.81-1.36-11.35-1.14a17.08,17.08,0,0,0,.09,3.3c.26,2.48,3.72,6.62,3.75,6.66a.49.49,0,0,1,0,.66l-4.38,4.71.84,1.44c.77,1.31,4.93,2.89,6.47,3.38a.52.52,0,0,1,.33.36.51.51,0,0,1-.13.47l-2.19,2.24a18.59,18.59,0,0,0,4.19,3.67,10.68,10.68,0,0,0,5.66,1.26ZM245.18,71Z" style="fill:#263238"></path><path d="M218.27,80.47s.15-4.26.32-6.58a11.6,11.6,0,0,1,.93-3.88l5.84,2.84,3.89,2.87a8.86,8.86,0,0,1,1.71-3.5l1.53-2.15s2.73,2.3,3.53,4.61l.79,2.31,5-2.37s1,5.79.48,8.9a21.26,21.26,0,0,1-2.65,6.41s-.72,5.42-4.55,8.36-10.21,5.14-12.73,4.39a36.33,36.33,0,0,1-4.86-1.89l2.87-3.9s-5.43-.71-7-1.47l-1.56-.76,4.41-4.11s-.59-.77-3.13-3.45A19.48,19.48,0,0,1,209.37,80Z" style="fill:#fff"></path><path d="M223.54,103.32a4.65,4.65,0,0,1-1.31-.16,34.36,34.36,0,0,1-4.93-1.92.45.45,0,0,1-.27-.33.47.47,0,0,1,.08-.41l2.37-3.23a31.66,31.66,0,0,1-6.3-1.4l-1.56-.76a.47.47,0,0,1-.27-.38.49.49,0,0,1,.15-.44l4.06-3.78c-.38-.45-1.2-1.38-2.8-3.06a19.75,19.75,0,0,1-3.87-7.34.5.5,0,0,1,.09-.44.48.48,0,0,1,.42-.19l8.39.46c.05-1.2.17-4.26.31-6.09a12.08,12.08,0,0,1,1-4.06.5.5,0,0,1,.67-.23l5.83,2.84L229,74.88a11.9,11.9,0,0,1,1.59-2.95l1.53-2.15a.47.47,0,0,1,.34-.2.5.5,0,0,1,.39.11c.11.1,2.84,2.41,3.68,4.83l.61,1.78,4.5-2.13a.48.48,0,0,1,.45,0,.49.49,0,0,1,.26.35c0,.24,1,5.92.48,9.07a21.43,21.43,0,0,1-2.66,6.5c-.12.82-1,5.76-4.73,8.59C232,101.31,226.66,103.32,223.54,103.32Zm-5.26-2.72a36.72,36.72,0,0,0,4.23,1.6c2.38.7,8.58-1.47,12.28-4.3s4.36-8,4.37-8a.48.48,0,0,1,.07-.2,20.85,20.85,0,0,0,2.57-6.23c.43-2.38-.12-6.49-.37-8.07L237,77.44a.46.46,0,0,1-.41,0,.5.5,0,0,1-.28-.29l-.8-2.32a11.77,11.77,0,0,0-3-4l-1.2,1.69a8.65,8.65,0,0,0-1.62,3.27.52.52,0,0,1-.3.4.53.53,0,0,1-.49-.06l-3.9-2.86-5.28-2.57a12.38,12.38,0,0,0-.69,3.24c-.16,2.28-.31,6.52-.32,6.56a.48.48,0,0,1-.16.35.47.47,0,0,1-.36.13l-8.19-.45a18,18,0,0,0,3.42,6.24c2.53,2.67,3.14,3.46,3.17,3.49a.51.51,0,0,1-.06.67l-3.88,3.61.91.44c1.21.59,5.34,1.23,6.82,1.43a.5.5,0,0,1,.4.3.51.51,0,0,1-.06.49Z" style="fill:#263238"></path><path d="M242.3,83.52l-4.59-1.69a8,8,0,0,0-1.46,5c0,3.16-.18,7.47-.18,7.47a13.21,13.21,0,0,0-6.08-.45,16,16,0,0,0-5.18,1.58s-.45,4.81,3.1,5.91" style="fill:#fff"></path><path d="M227.91,101.8a.39.39,0,0,1-.15,0c-3.12-1-3.62-4.64-3.44-6.44a.49.49,0,0,1,.24-.39,16.68,16.68,0,0,1,5.35-1.63,14.18,14.18,0,0,1,5.69.27c.05-1.31.17-4.4.15-6.8a8.45,8.45,0,0,1,1.58-5.28.5.5,0,0,1,.56-.14l4.58,1.68a.5.5,0,1,1-.35.93l-4.22-1.54a7.87,7.87,0,0,0-1.15,4.34c0,3.14-.18,7.46-.18,7.5a.49.49,0,0,1-.22.39.52.52,0,0,1-.45.06,12.75,12.75,0,0,0-5.83-.42,17.25,17.25,0,0,0-4.77,1.39c0,1,.09,4.3,2.76,5.13a.5.5,0,0,1,.33.62A.49.49,0,0,1,227.91,101.8Z" style="fill:#263238"></path><path d="M231.89,106.71a24.94,24.94,0,0,1,5.13-6,29.16,29.16,0,0,1,7.68-4.12s.3-7.73,1.54-10.27l2.23-4.58" style="fill:#fff"></path><path d="M231.89,107.21a.47.47,0,0,1-.25-.07.5.5,0,0,1-.18-.68,24.87,24.87,0,0,1,5.24-6.14,28.7,28.7,0,0,1,7.52-4.1c.07-1.55.44-7.8,1.57-10.13L248,81.51a.5.5,0,0,1,.9.43l-2.23,4.58c-1.18,2.43-1.49,10-1.49,10.07a.51.51,0,0,1-.34.46,28.88,28.88,0,0,0-7.52,4,24.36,24.36,0,0,0-5,5.87A.5.5,0,0,1,231.89,107.21Z" style="fill:#263238"></path><path d="M230,93.81a39.62,39.62,0,0,0,3.61-5.48c1.12-2.29,1.19-8.24-.19-6.07a10.73,10.73,0,0,0-1.6,3.94s-1.19-5.31-2.06-3.52-.2,4.93-.2,4.93-4.47-3.11-3.68-.84a6.83,6.83,0,0,0,1.93,3.14s-3.69-1.48-3.8,0,2.81,2.63,2.81,2.63l-2,2.81Z" style="fill:#fff"></path><path d="M224.81,95.89a.5.5,0,0,1-.4-.21.48.48,0,0,1,0-.58l1.64-2.31c-1-.45-2.65-1.47-2.55-2.88A1.1,1.1,0,0,1,224,89a3.29,3.29,0,0,1,2.3-.08,9.88,9.88,0,0,1-1-2q-.31-.92.21-1.32c.62-.46,2,.16,3.28,1a8.19,8.19,0,0,1,.42-4.12c.3-.62.7-.67.93-.65.57.07,1.1.91,1.6,2.49A13.07,13.07,0,0,1,233,82c.54-.85,1-.75,1.29-.61,1.2.67.58,5.51-.23,7.17a38.76,38.76,0,0,1-3.67,5.57.49.49,0,0,1-.25.17L225,95.86A.4.4,0,0,1,224.81,95.89Zm.24-6.13a1.07,1.07,0,0,0-.49.09.15.15,0,0,0-.06.14c-.07.86,1.65,1.8,2.49,2.12a.56.56,0,0,1,.3.32.53.53,0,0,1-.07.44l-1.15,1.61,3.62-1.1a36.79,36.79,0,0,0,3.46-5.27,11.71,11.71,0,0,0,.7-5.61v0a10.3,10.3,0,0,0-1.53,3.74.51.51,0,0,1-.48.43.49.49,0,0,1-.51-.39,13.69,13.69,0,0,0-1.14-3.37c-.75,1.62-.15,4.54-.15,4.57a.49.49,0,0,1-.21.52.48.48,0,0,1-.56,0,11.16,11.16,0,0,0-3-1.58,1.42,1.42,0,0,0,.05.16,6.58,6.58,0,0,0,1.76,2.92.5.5,0,0,1,.13.64.52.52,0,0,1-.62.22A8,8,0,0,0,225.05,89.76Zm4.94,4h0Z" style="fill:#263238"></path><path d="M290.37,78.14s-4.3,16.06-.23,24,12.9,10.41,19.91,8.6,12.45-10.86,13.12-15.39.46-12-9.5-17.19S292.18,74.06,290.37,78.14Z" style="fill:#BEF264"></path><path d="M305.54,111.78a17.39,17.39,0,0,1-15.84-9.43c-4.12-8,0-23.68.18-24.34l0-.08A6,6,0,0,1,293.67,75c4.38-1.52,12.58-1.35,20.23,2.65s10.93,10,9.77,17.72c-.65,4.34-6,13.86-13.49,15.79A18.49,18.49,0,0,1,305.54,111.78ZM290.84,78.3c-.23.88-4.1,16.12-.26,23.59,4.17,8.09,12.95,10,19.35,8.34,6.78-1.75,12.11-10.69,12.75-15,1.09-7.29-2-12.9-9.24-16.68-7.39-3.86-15.26-4-19.44-2.59A5.12,5.12,0,0,0,290.84,78.3Z" style="fill:#263238"></path><path d="M293.53,78.59a5.42,5.42,0,0,0-2.94,4.75c-.22,3.62-.45,7.92-.45,7.92a12.2,12.2,0,0,1,3.85-.45c1.35.22,9.5,0,9.5,0a23.07,23.07,0,0,0,2,3.62c.9,1.13,4.75,3.39,4.75,3.39a5.39,5.39,0,0,0,4.52-3.17c1.59-3.17,2.76-5.42,2.76-5.42s2.67,4.52,5.61,6.1,6.34,3.17,6.34,3.17A4.76,4.76,0,0,0,332,92.39a25.58,25.58,0,0,0-5.21-7.92s4.53.23,6.34.45a4.87,4.87,0,0,0,2.94-.45l-2.49-3.85s3.62-2.48,5.43-3.84a12.25,12.25,0,0,0,2.94-3.4s-.9-.67-5.65-1.58a27.73,27.73,0,0,0-10.18.45L330,68.18l2.49-7.24s-7.92-.91-10.86,0-7,2.71-7,2.71a15.38,15.38,0,0,0,1.35-4.75,11,11,0,0,0-.45-3.16,33.47,33.47,0,0,0-5,2.48,24.53,24.53,0,0,0-2.94,3.4s.86-5.4-2.06-5.64a20.13,20.13,0,0,1-5.86-1.6c-.68-.23-2,2.26-2,4.07a63.26,63.26,0,0,0,.9,6.79s-1.81-2-5.88-1.36-5.88,1.36-6.56,2,2.26,2.49,4.07,3.62,4.53,2.71,4.53,2.71-5.21,1.13-6.79,5l-1.59,3.85Z" style="fill:#fff"></path><path d="M329.51,99a.54.54,0,0,1-.21,0s-3.44-1.61-6.36-3.18c-2.32-1.25-4.42-4.15-5.33-5.53-.48.91-1.33,2.58-2.36,4.64a5.86,5.86,0,0,1-5,3.44.48.48,0,0,1-.26-.07c-.4-.24-3.95-2.34-4.88-3.51a20,20,0,0,1-2-3.43c-1.57,0-8,.2-9.27,0a11.5,11.5,0,0,0-3.64.44.5.5,0,0,1-.63-.51s.23-4.3.45-7.92a6.51,6.51,0,0,1,1.16-3.41l-4.79,1.65a.52.52,0,0,1-.53-.13.49.49,0,0,1-.1-.53L287.42,77c1.2-2.93,4.3-4.36,6-4.94-1-.57-2.43-1.44-3.54-2.14l-.14-.08c-2.81-1.76-4.17-2.75-4.27-3.62a.85.85,0,0,1,.24-.7c.87-.86,3-1.53,6.84-2.17a7.93,7.93,0,0,1,5.26.71,47.45,47.45,0,0,1-.7-5.65A6.44,6.44,0,0,1,299,54.08a.93.93,0,0,1,.85-.18l.57.22a17.14,17.14,0,0,0,5.17,1.36,2.37,2.37,0,0,1,1.74.93,6.06,6.06,0,0,1,.9,3.59,15.93,15.93,0,0,1,2-2.17,34,34,0,0,1,5.1-2.56.51.51,0,0,1,.4,0,.53.53,0,0,1,.27.3,11.58,11.58,0,0,1,.47,3.32,12.08,12.08,0,0,1-.92,3.81c1.44-.61,3.95-1.64,5.93-2.25,3-.92,10.74-.06,11.07,0a.49.49,0,0,1,.36.23.47.47,0,0,1,.05.43l-2.49,7.24a.52.52,0,0,1-.1.18l-2.77,2.93a25.87,25.87,0,0,1,8.83-.14c4.73.9,5.76,1.6,5.86,1.67a.51.51,0,0,1,.14.65,12.76,12.76,0,0,1-3.08,3.55c-1.44,1.08-4.05,2.89-5,3.58l2.22,3.44a.5.5,0,0,1-.16.7,5.34,5.34,0,0,1-3.26.52c-1.19-.15-3.6-.3-5.07-.38a24.56,24.56,0,0,1,4.47,7.18c1.72,4.68-2.71,6.72-2.76,6.74A.65.65,0,0,1,329.51,99ZM317.56,88.73A.53.53,0,0,1,318,89s2.63,4.41,5.41,5.91c2.47,1.33,5.3,2.68,6.09,3a4.17,4.17,0,0,0,2-5.38,25.27,25.27,0,0,0-5.09-7.74.5.5,0,0,1,.38-.85c.19,0,4.56.23,6.37.46a5,5,0,0,0,2.14-.18l-2.17-3.35a.52.52,0,0,1,.14-.69s3.63-2.5,5.41-3.83a11.39,11.39,0,0,0,2.53-2.79,25.62,25.62,0,0,0-15-.85.52.52,0,0,1-.56-.23.51.51,0,0,1,.07-.6l3.77-4,2.25-6.55c-1.9-.18-7.69-.67-10,.05-2.88.88-6.92,2.67-7,2.69a.51.51,0,0,1-.56-.1.53.53,0,0,1-.1-.56,14.83,14.83,0,0,0,1.31-4.55,11.46,11.46,0,0,0-.28-2.48,26.71,26.71,0,0,0-4.33,2.2A23.29,23.29,0,0,0,308,61.91a.5.5,0,0,1-.6.17.5.5,0,0,1-.3-.54c.14-.87.3-3.39-.58-4.51a1.35,1.35,0,0,0-1-.55A18.44,18.44,0,0,1,300,55.05l-.44-.17a5.66,5.66,0,0,0-1.44,3.57,65.69,65.69,0,0,0,.89,6.7.5.5,0,0,1-.27.54.49.49,0,0,1-.59-.12c-.07-.07-1.71-1.82-5.43-1.2-3.39.57-5.48,1.19-6.22,1.84.28.63,2.81,2.21,3.78,2.82l.14.08c1.78,1.12,4.48,2.7,4.51,2.71a.5.5,0,0,1-.15.92s-5,1.13-6.43,4.68l-1.16,2.82,6.19-2.12a.5.5,0,0,1,.36.93,4.89,4.89,0,0,0-2.64,4.32c-.17,2.75-.34,5.9-.41,7.24a10.73,10.73,0,0,1,3.39-.3c1.07.18,7.15.06,9.41,0a.53.53,0,0,1,.47.29,22.34,22.34,0,0,0,2,3.51,24.59,24.59,0,0,0,4.48,3.2,4.93,4.93,0,0,0,4-2.88c1.58-3.17,2.76-5.43,2.76-5.43a.52.52,0,0,1,.43-.27Z" style="fill:#263238"></path><path d="M303.54,71s1-1.31-2.93-7.83-15.65-8.8-13-4.56a117.16,117.16,0,0,0,8.15,10.76s-4.57-3.26-7.5,0-4.89,4.89-2.28,5.87,9.78,3.26,9.78,3.26l4.89,1.63s-2,2.28-2,6.84,1.63,6.2,1.63,6.2a13,13,0,0,0,7.83-2.94c3.26-2.93,5.22-4.56,5.22-4.56a31.11,31.11,0,0,1,4.23,3.58c2.29,2.29,7.5,4.57,7.5,4.57s.33-3.91-1-5.54a21.94,21.94,0,0,0-2.94-2.94s4.89-3.26,6.2-3.91a63.12,63.12,0,0,0,5.86-4.56,14.44,14.44,0,0,0-6.19-2h-6.19s4.56-5.54,5.54-8.48a18.17,18.17,0,0,0,1-5.21l-8.48,2.6a30.11,30.11,0,0,0-7.5,3.59s1.3-3.26-.33-5.87S306.48,56,305.5,56s-2.28,3.58-2.28,6.52S303.54,71,303.54,71Z" style="fill:#fff"></path><path d="M325.06,94.3a.51.51,0,0,1-.2,0c-.21-.1-5.33-2.35-7.65-4.67a32.24,32.24,0,0,0-3.86-3.31c-.66.56-2.4,2-4.91,4.3a13.35,13.35,0,0,1-8.16,3.07.51.51,0,0,1-.35-.15c-.07-.07-1.78-1.83-1.78-6.55a12.37,12.37,0,0,1,1.67-6.58L295.56,79c-.06,0-7.21-2.3-9.8-3.27-.87-.33-1.37-.76-1.5-1.34-.27-1.12.82-2.3,2.62-4.26l1-1.07c1.73-1.93,4.09-1.83,5.95-1.19a101,101,0,0,1-6.66-9,2,2,0,0,1-.28-2c.22-.4.76-.89,2.11-.91,3.21-.1,9.42,2.54,12.07,7,.75,1.25,1.33,2.32,1.77,3.23-.05-1.29-.09-2.61-.09-3.62,0-2.77,1.24-7,2.78-7,1.37,0,4.51,3.45,6,5.78a7,7,0,0,1,.73,5,30.79,30.79,0,0,1,6.52-2.94l8.48-2.61a.49.49,0,0,1,.44.07.52.52,0,0,1,.21.41,18.89,18.89,0,0,1-1,5.37c-.78,2.33-3.66,6.15-5,7.82H327a14.68,14.68,0,0,1,6.45,2,.47.47,0,0,1,.24.38.48.48,0,0,1-.17.42,60.46,60.46,0,0,1-6,4.64c-1,.5-4.27,2.64-5.59,3.51a22.27,22.27,0,0,1,2.5,2.57c1.41,1.77,1.1,5.73,1.08,5.9a.5.5,0,0,1-.5.46Zm-11.73-9.15a.53.53,0,0,1,.27.08,31.24,31.24,0,0,1,4.32,3.65c1.71,1.72,5.22,3.47,6.68,4.16,0-1.32-.11-3.48-.91-4.47a21.86,21.86,0,0,0-2.85-2.86.48.48,0,0,1-.19-.41.49.49,0,0,1,.22-.39c.21-.14,4.94-3.29,6.25-4a51.19,51.19,0,0,0,5.22-4A12.86,12.86,0,0,0,327,75.39h-6.19a.5.5,0,0,1-.39-.82s4.52-5.5,5.45-8.32a19.41,19.41,0,0,0,.92-4.37L319,64.28a30,30,0,0,0-7.36,3.52.5.5,0,0,1-.76-.59s1.19-3.07-.28-5.42c-1.78-2.84-4.52-5.31-5.12-5.31-.54.15-1.78,3.16-1.78,6,0,1.8.12,4.62.22,6.5.4,1.49.15,2.08,0,2.28a.55.55,0,0,1-.55.18.49.49,0,0,1-.35-.45s-.05-.76-.1-1.82a25.14,25.14,0,0,0-2.77-5.78c-2.42-4-8.26-6.53-11.19-6.47-.66,0-1.12.16-1.25.39s0,.56.25,1A117.27,117.27,0,0,0,296.1,69a.5.5,0,0,1,0,.66.49.49,0,0,1-.66.07c-.17-.12-4.24-3-6.84-.07l-1,1.07c-1.35,1.48-2.52,2.76-2.38,3.36.07.28.52.5.88.64,2.57,1,9.69,3.23,9.76,3.25l4.9,1.63a.48.48,0,0,1,.32.34.48.48,0,0,1-.1.46A10.6,10.6,0,0,0,299.15,87c0,3.51,1,5.2,1.36,5.69a12.46,12.46,0,0,0,7.27-2.8C311,86.93,313,85.28,313,85.26A.52.52,0,0,1,313.33,85.15Z" style="fill:#263238"></path><path d="M311.18,85.88a1.93,1.93,0,0,1-1.54-.67,2.65,2.65,0,0,1-.56-1.4c-.83.69-1.83,1.28-2.47.85s-.31-1.84.21-2.84a9.83,9.83,0,0,1-4.65-3.63c-.14-.2-3.5-5.09-2.46-6.09.47-.46,1.14,0,1.36.21a10.42,10.42,0,0,1,2.17,2.34l0-.05c-.79-2.06-1.23-3.36-.64-3.95a1,1,0,0,1,1.14-.14,4.27,4.27,0,0,1,2.22,2.28,6.38,6.38,0,0,1,.53-2.17.73.73,0,0,1,.85-.35c.51.15.84.88,1,1.69.45-1.1,1-2,1.67-2.17a1.11,1.11,0,0,1,1.05.27,3.22,3.22,0,0,1,.71,2.72,2.28,2.28,0,0,1,1.15-.92.91.91,0,0,1,.88.27,2.19,2.19,0,0,1,.6,1.18,1.05,1.05,0,0,1,.62-.23c.49,0,.88.33,1.15,1a5,5,0,0,1,.19,3.12,3.13,3.13,0,0,1,2.46-.56,1.33,1.33,0,0,1,.78,1.2,3.09,3.09,0,0,1-1,2.84,2.4,2.4,0,0,1,.86,1.67,1.4,1.4,0,0,1-.81,1.18,7.12,7.12,0,0,1-3.69.76A6.12,6.12,0,0,1,311.18,85.88Zm-1.58-3.72a.49.49,0,0,1,.23.06.48.48,0,0,1,.26.52,2.68,2.68,0,0,0,.31,1.83,1,1,0,0,0,.78.31,5.31,5.31,0,0,0,3.27-1.44.5.5,0,0,1,.41-.15,6.16,6.16,0,0,0,3.31-.61c.31-.17.31-.31.32-.35,0-.38-.61-1-1-1.3a.5.5,0,0,1-.21-.49.51.51,0,0,1,.36-.4c.11,0,1.17-.42,1-2.18,0-.15-.05-.34-.16-.38-.45-.19-1.85.57-2.87,1.4a.51.51,0,0,1-.65,0,.5.5,0,0,1-.08-.65,4.51,4.51,0,0,0,.4-3.84c-.13-.34-.24-.4-.24-.4a3.88,3.88,0,0,0-.83,1.35,5.65,5.65,0,0,1-.28.68.49.49,0,0,1-.64.23.5.5,0,0,1-.28-.62c.07-.19.16-.44.28-.71a2.24,2.24,0,0,0-.16-2.17c-.41.07-1.48,1.91-2.36,4l-.22.54a.48.48,0,0,1-.64.27.5.5,0,0,1-.29-.64l.22-.53c.79-2.1,1.44-5,.61-5.7-.07,0-.12-.08-.15-.07-.49.13-1.15,2-1.37,2.56-.3.83-.44,1.2-.91,1.12s-.46-.58-.46-.82a5.88,5.88,0,0,0-.35-2.07,28.23,28.23,0,0,0-.47,3.91.49.49,0,0,1-.48.47.5.5,0,0,1-.51-.44s-.44-3.33-2.34-4l-.07,0a11.63,11.63,0,0,0,.86,2.82c.57,1.48.74,2,.49,2.34a.71.71,0,0,1-.48.25c-.58,0-1-.56-1.6-1.41a11.25,11.25,0,0,0-2-2.23A20.5,20.5,0,0,0,303,77.62,8.7,8.7,0,0,0,307.68,81a.52.52,0,0,1,.34.29.53.53,0,0,1,0,.46,5.37,5.37,0,0,0-.8,2,6.58,6.58,0,0,0,2.06-1.5A.47.47,0,0,1,309.6,82.16Zm-2.4,1.72h0Z" style="fill:#263238"></path><path d="M353.77,299.43l29-27.45-25.35,30.8a2.45,2.45,0,0,1-3.27.48h0A2.46,2.46,0,0,1,353.77,299.43Z" style="fill:#fff"></path><path d="M355.47,304.18a3,3,0,0,1-3-2.71,2.92,2.92,0,0,1,.91-2.4l28.94-27.45a.51.51,0,0,1,.69,0,.5.5,0,0,1,0,.68l-25.35,30.8A2.94,2.94,0,0,1,355.47,304.18Zm21.71-26.25L354.12,299.8h0a1.93,1.93,0,0,0-.61,1.58,2,2,0,0,0,3.47,1.08Zm-23.41,21.5h0Z" style="fill:#263238"></path><path d="M319.31,389.5C280,426.09,205.61,449.27,186,428.23s8.91-93.55,48.23-130.14S324.5,252.3,348,277.55,358.64,352.91,319.31,389.5Z" style="fill:#BEF264"></path><path d="M211.22,436.68c-11.63,0-20.53-2.71-25.55-8.11-9.21-9.89-8.49-32.23,1.92-59.75,10.24-27.06,27.56-53.63,46.33-71.1C253,280,275.4,268,297,264.14s39.9.73,51.38,13.06,14.8,30.88,9.34,52.19-18.95,42.72-38,60.48l-.34-.37.34.37c-18.77,17.46-46.52,32.82-74.24,41.09C232.57,434.78,220.94,436.68,211.22,436.68ZM311.41,263.79a80.73,80.73,0,0,0-14.26,1.33c-21.39,3.87-43.6,15.7-62.55,33.34-18.66,17.36-35.89,43.79-46.07,70.71-10.28,27.16-11.07,49.11-2.13,58.72s30.9,10.4,58.72,2.11c27.58-8.23,55.19-23.5,73.85-40.87,18.95-17.63,32.36-38.93,37.75-60s2.14-39.18-9.1-51.25C339,268.61,326.42,263.79,311.41,263.79Z" style="fill:#263238"></path><path d="M226.39,306a114.07,114.07,0,0,0,11.48,11.57s10.22-2,17.12-4.86c3.36-1.36,6.17-4.18,8.17-6.72a11.91,11.91,0,0,0,4.61-.69c5.88-2.55,5.37-11,5.37-11s3.32,10,7.16,10,27.86-14.57,28.88-19.94-10.73-9.46-10.73-9.46a15.64,15.64,0,0,0,8.43-7.92,24.8,24.8,0,0,0,1.25-3.62c-23.3,1-50.61,13.07-73.87,34.71C231.58,300.58,229,303.24,226.39,306Z" style="fill:#263238"></path><path d="M237.87,318.11a.5.5,0,0,1-.33-.12A115.64,115.64,0,0,1,226,306.35a.5.5,0,0,1,0-.65c2.63-2.86,5.29-5.54,7.9-8,22.65-21.07,49.69-33.77,74.19-34.84a.5.5,0,0,1,.5.62,23.81,23.81,0,0,1-1.27,3.7,15.85,15.85,0,0,1-7.57,7.69c3,1.23,10.8,4.86,9.9,9.58-1.06,5.59-25.09,20.35-29.37,20.35-3,0-5.48-4.91-6.75-8-.32,2.81-1.48,7.19-5.58,9a12,12,0,0,1-4.57.73,21.22,21.22,0,0,1-8.22,6.69c-6.87,2.79-17.11,4.86-17.22,4.88Zm-10.81-12.05a114.33,114.33,0,0,0,10.95,11,113.61,113.61,0,0,0,16.79-4.78,20.35,20.35,0,0,0,8-6.57.56.56,0,0,1,.39-.19,10.89,10.89,0,0,0,4.41-.65c5.5-2.39,5.08-10.42,5.07-10.5a.51.51,0,0,1,.41-.52.5.5,0,0,1,.57.33c.89,2.68,3.83,9.63,6.68,9.63,3.56,0,27.43-14.47,28.39-19.53.93-4.89-10.29-8.86-10.41-8.89a.51.51,0,0,1,0-.95,15.26,15.26,0,0,0,8.14-7.65,21.29,21.29,0,0,0,1-2.89c-24.08,1.26-50.59,13.83-72.86,34.55C232.1,300.78,229.57,303.33,227.06,306.06Z" style="fill:#263238"></path><path d="M310.25,294.25c-2.58,2.4-6.29,2.62-8.27.49s-1.5-5.81,1.08-8.21,6.28-2.62,8.27-.49S312.83,291.85,310.25,294.25Z" style="fill:#BEF264"></path><path d="M305.54,296.7a5.27,5.27,0,0,1-3.93-1.62,5.34,5.34,0,0,1-1.3-4.41,7.59,7.59,0,0,1,2.41-4.51c2.78-2.58,6.8-2.79,9-.46s1.67,6.33-1.11,8.92A7.52,7.52,0,0,1,305.54,296.7Zm2.23-11.63a6.55,6.55,0,0,0-4.37,1.82,6.62,6.62,0,0,0-2.1,3.91,4.35,4.35,0,0,0,1.05,3.6c1.79,1.93,5.18,1.7,7.56-.51s2.85-5.58,1-7.51A4.25,4.25,0,0,0,307.77,285.07Z" style="fill:#263238"></path><path d="M266.12,304.29c-2.58,2.4-6.28,2.62-8.27.49s-1.5-5.81,1.09-8.21,6.28-2.62,8.26-.49S268.7,301.89,266.12,304.29Z" style="fill:#BEF264"></path><path d="M261.41,306.75a5.22,5.22,0,0,1-3.92-1.63c-2.17-2.33-1.67-6.33,1.1-8.92a7.63,7.63,0,0,1,4.67-2.08,5.16,5.16,0,0,1,5.61,6,7.54,7.54,0,0,1-2.41,4.51h0a7.51,7.51,0,0,1-4.67,2.07Zm2.23-11.64h-.32a6.6,6.6,0,0,0-4,1.81c-2.38,2.21-2.85,5.58-1.06,7.51a4.39,4.39,0,0,0,3.52,1.3,6.56,6.56,0,0,0,4-1.82h0a6.52,6.52,0,0,0,2.1-3.9,4.37,4.37,0,0,0-1-3.6A4.28,4.28,0,0,0,263.64,295.11Z" style="fill:#263238"></path><path d="M271.33,342.93c-2.58,2.4-6.28,2.62-8.27.49s-1.5-5.81,1.08-8.21,6.29-2.62,8.27-.49S273.91,340.53,271.33,342.93Z" style="fill:#BEF264"></path><path d="M266.62,345.38a5.28,5.28,0,0,1-3.92-1.62c-2.17-2.33-1.68-6.34,1.1-8.92a7.58,7.58,0,0,1,4.67-2.08,5.16,5.16,0,0,1,5.61,6,7.59,7.59,0,0,1-2.41,4.51h0A7.5,7.5,0,0,1,266.62,345.38Zm2.23-11.63h-.32a6.63,6.63,0,0,0-4,1.81c-2.37,2.21-2.85,5.58-1.05,7.51s5.19,1.69,7.56-.52a6.6,6.6,0,0,0,2.1-3.9,4.35,4.35,0,0,0-1-3.6A4.26,4.26,0,0,0,268.85,333.75Zm2.48,9.18h0Z" style="fill:#263238"></path><path d="M223.6,356.6c-2.58,2.4-6.28,2.62-8.27.49s-1.5-5.81,1.08-8.21,6.29-2.62,8.27-.49S226.18,354.2,223.6,356.6Z" style="fill:#BEF264"></path><path d="M218.9,359.05a5.12,5.12,0,0,1-5.23-6,7.53,7.53,0,0,1,2.4-4.51c2.78-2.59,6.81-2.79,9-.46a5.34,5.34,0,0,1,1.3,4.41,7.57,7.57,0,0,1-2.41,4.51A7.49,7.49,0,0,1,218.9,359.05Zm2.22-11.63a6.82,6.82,0,0,0-6.46,5.73,4.31,4.31,0,0,0,1,3.6c1.79,1.92,5.19,1.69,7.56-.52h0a6.6,6.6,0,0,0,2.1-3.9,4.37,4.37,0,0,0-1-3.6A4.29,4.29,0,0,0,221.12,347.42Z" style="fill:#263238"></path><path d="M235.08,403.47c-2.58,2.4-6.28,2.62-8.27.49s-1.5-5.81,1.08-8.21,6.29-2.62,8.27-.49S237.66,401.07,235.08,403.47Z" style="fill:#BEF264"></path><path d="M230.37,405.93a5.14,5.14,0,0,1-5.22-6,7.53,7.53,0,0,1,2.4-4.51,7.63,7.63,0,0,1,4.67-2.08,5.16,5.16,0,0,1,5.61,6,7.88,7.88,0,0,1-7.08,6.59Zm2.23-11.64h-.32a6.85,6.85,0,0,0-6.14,5.72,4.16,4.16,0,0,0,4.55,4.9,6.61,6.61,0,0,0,4.05-1.81h0a6.62,6.62,0,0,0,2.1-3.91,4.37,4.37,0,0,0-1-3.6A4.28,4.28,0,0,0,232.6,394.29Z" style="fill:#263238"></path><path d="M293.23,387.45c-2.58,2.4-6.29,2.62-8.27.49s-1.5-5.81,1.08-8.21,6.28-2.62,8.27-.49S295.81,385.05,293.23,387.45Z" style="fill:#BEF264"></path><path d="M288.52,389.9a5.12,5.12,0,0,1-5.23-6,7.59,7.59,0,0,1,2.41-4.51c2.78-2.58,6.8-2.79,9-.46s1.68,6.33-1.1,8.92h0A7.53,7.53,0,0,1,288.52,389.9Zm2.23-11.63a6.84,6.84,0,0,0-6.47,5.73,4.35,4.35,0,0,0,1.05,3.6c1.79,1.93,5.18,1.69,7.56-.52h0c2.37-2.2,2.85-5.57,1.05-7.5A4.25,4.25,0,0,0,290.75,378.27Zm2.48,9.18h0Z" style="fill:#263238"></path><path d="M336.39,334.16c-2.59,2.4-6.29,2.62-8.27.49s-1.5-5.81,1.08-8.21,6.28-2.62,8.27-.49S339,331.76,336.39,334.16Z" style="fill:#BEF264"></path><path d="M331.67,336.62a5.24,5.24,0,0,1-3.92-1.63c-2.17-2.33-1.67-6.33,1.11-8.92a7.58,7.58,0,0,1,4.67-2.08,5.32,5.32,0,0,1,4.3,1.62c2.17,2.33,1.67,6.33-1.1,8.92a7.63,7.63,0,0,1-4.67,2.08ZM333.91,325h-.33a6.6,6.6,0,0,0-4,1.81c-2.38,2.21-2.85,5.58-1.06,7.51a4.39,4.39,0,0,0,3.52,1.3,6.6,6.6,0,0,0,4-1.81h0c2.38-2.21,2.85-5.58,1.06-7.51A4.27,4.27,0,0,0,333.91,325Z" style="fill:#263238"></path><path d="M204.35,331.55l-18.69-35.24L208.53,329a2.45,2.45,0,0,1-.41,3.27h0A2.45,2.45,0,0,1,204.35,331.55Z" style="fill:#fff"></path><path d="M206.52,333.36a2.57,2.57,0,0,1-.55-.06,2.94,2.94,0,0,1-2.07-1.52l-18.69-35.24a.5.5,0,0,1,.19-.66.5.5,0,0,1,.67.14l22.87,32.68a3,3,0,0,1-2.42,4.66ZM189.9,303.24l14.89,28.08h0a2,2,0,1,0,3.33-2.05Z" style="fill:#263238"></path><path d="M278,412.56l39.39,6.32-39.87-1.43a2.47,2.47,0,0,1-2.36-2.31h0A2.46,2.46,0,0,1,278,412.56Z" style="fill:#fff"></path><path d="M317.39,419.38h0L277.51,418a3,3,0,0,1-1.89-5.15,2.92,2.92,0,0,1,2.46-.73l39.39,6.32a.5.5,0,0,1,.42.54A.5.5,0,0,1,317.39,419.38ZM277.61,413a1.94,1.94,0,0,0-1.31.51,1.91,1.91,0,0,0-.64,1.57,2,2,0,0,0,1.88,1.84l31.76,1.14-31.38-5h0A1.63,1.63,0,0,0,277.61,413Z" style="fill:#263238"></path><path d="M348,344l39.39,6.32-39.87-1.44a2.45,2.45,0,0,1-2.36-2.3h0A2.45,2.45,0,0,1,348,344Z" style="fill:#fff"></path><path d="M387.41,350.78h0l-39.86-1.44a3,3,0,1,1,.57-5.88l39.39,6.32a.5.5,0,0,1-.08,1Zm-39.78-6.36a2,2,0,0,0-.07,3.92l31.76,1.14-31.38-5h0A1.63,1.63,0,0,0,347.63,344.42Z" style="fill:#263238"></path><path d="M194.85,378.67l-39.06-8.13,39.76,3.27a2.45,2.45,0,0,1,2.26,2.41h0A2.47,2.47,0,0,1,194.85,378.67Z" style="fill:#fff"></path><path d="M195.36,379.22a3.08,3.08,0,0,1-.61-.06L155.69,371a.5.5,0,0,1,.14-1l39.76,3.27a3,3,0,0,1-.23,5.91Zm-31.52-7.52L195,378.18h0a2,2,0,1,0,.56-3.87Z" style="fill:#263238"></path><path d="M332.35,256.61s-4.6,8.22-1.91,14.49,8.7,8.51,13,8.79,15-8,15-8l-24.63-18Z" style="fill:#BEF264"></path><path d="M343.65,280.39h-.23c-4.74-.3-10.76-2.85-13.44-9.1s1.71-14.52,1.94-14.92l1.44-2.69a.49.49,0,0,1,.33-.25.54.54,0,0,1,.41.08l24.64,18a.48.48,0,0,1,.2.4.5.5,0,0,1-.19.4C358.31,272.64,348.22,280.39,343.65,280.39ZM334,254.66l-1.18,2.19h0c0,.08-4.45,8.08-1.89,14s8.14,8.21,12.58,8.49h.2c3.64,0,11.77-5.86,13.92-7.47Zm-1.62,2h0Z" style="fill:#263238"></path><path d="M365.44,242.86s1.08-2.17-.15-5.69a11.14,11.14,0,0,0-2.9-4.86l-3,2.86a20.58,20.58,0,0,0-2-4.39,9.2,9.2,0,0,0-3-1.95s-2.07,1.13-3.17,4.89l-1.1,3.76s-1.67-2.93-3.85-4a10.61,10.61,0,0,0-3.82-1.17l-.88,5.59s-3.21-1.82-5.22-1.39.11-.38-2,.43-.69,2.93.13,5.07a34.83,34.83,0,0,0,1.61,3.63l-4.93.38s-2.14,5.62-.91,9.14,7,7.16,7,7.16-1.37,1.05-.67,3.57,5.35,6.45,8.81,8.13,9.48-.87,9.48-.87,3.49,2.95,5.62,2.14,2.81-4.38,2.81-4.38a11.09,11.09,0,0,0,5.91-1.54,18.81,18.81,0,0,0,4.45-4.29l-2.59-2.47s5.64-2,6.61-3.84l1-1.79-4.81-4.82s3.44-4.39,3.62-7.06a13.79,13.79,0,0,0-.09-3.79S369.8,240.22,365.44,242.86Z" style="fill:#fff"></path><path d="M359.72,275.92c-1.92,0-4.12-1.61-4.88-2.21-1.26.5-6.38,2.32-9.61.75-3.67-1.79-8.34-5.79-9.07-8.45a4.14,4.14,0,0,1,.39-3.59c-1.45-1-5.66-4.05-6.73-7.11-1.28-3.64.82-9.25.91-9.48a.5.5,0,0,1,.43-.32l4.19-.32c-.31-.65-.8-1.71-1.3-3-.14-.36-.3-.73-.45-1.09-.56-1.28-1.09-2.5-.67-3.49a2.1,2.1,0,0,1,1.28-1.12c1.18-.45,1.31-.5,1.5-.35a5.88,5.88,0,0,0,.59-.1c1.63-.35,3.86.58,4.95,1.11l.76-4.91a.51.51,0,0,1,.52-.42,11.07,11.07,0,0,1,4,1.22,10.49,10.49,0,0,1,3.45,3.27l.79-2.71c1.14-3.91,3.32-5.14,3.41-5.19a.5.5,0,0,1,.43,0,9.58,9.58,0,0,1,3.16,2.1,16.28,16.28,0,0,1,1.83,3.8L362,232a.49.49,0,0,1,.66,0,11.54,11.54,0,0,1,3.07,5.09,9.38,9.38,0,0,1,.48,4.87c4.5-2,11-1.12,11.25-1.08a.5.5,0,0,1,.41.38,14.27,14.27,0,0,1,.11,3.95c-.16,2.36-2.63,5.85-3.46,7l4.5,4.51a.5.5,0,0,1,.09.59l-1,1.8c-.84,1.56-4.49,3.14-6.13,3.79l2,1.92a.5.5,0,0,1,.07.65,19.19,19.19,0,0,1-4.59,4.42,11.42,11.42,0,0,1-5.79,1.63c-.26,1-1.09,3.6-3,4.33A2.66,2.66,0,0,1,359.72,275.92Zm-4.79-3.28a.49.49,0,0,1,.32.12c.91.77,3.61,2.62,5.13,2.05,1.84-.7,2.48-4,2.49-4a.48.48,0,0,1,.51-.41,10.68,10.68,0,0,0,5.62-1.46,18.35,18.35,0,0,0,4.05-3.82L370.78,263a.5.5,0,0,1,.18-.83c1.52-.55,5.62-2.27,6.34-3.6l.79-1.47-4.54-4.56a.49.49,0,0,1,0-.66s3.34-4.3,3.51-6.78a17.05,17.05,0,0,0,0-3.31c-1.55-.17-7.67-.66-11.3,1.54a.5.5,0,0,1-.6-.06.5.5,0,0,1-.11-.59,7.43,7.43,0,0,0-.17-5.3,12.1,12.1,0,0,0-2.44-4.34l-2.61,2.53a.53.53,0,0,1-.47.12.47.47,0,0,1-.35-.33A19.35,19.35,0,0,0,357,231.1a8,8,0,0,0-2.52-1.7,8.27,8.27,0,0,0-2.74,4.46l-1.1,3.76a.5.5,0,0,1-.91.11s-1.62-2.81-3.64-3.81a11.42,11.42,0,0,0-3.19-1.07l-.79,5.12a.51.51,0,0,1-.28.37.5.5,0,0,1-.46,0c-.85-.48-3.38-1.66-4.88-1.34a3,3,0,0,1-1.18.12l-.76.29a1.19,1.19,0,0,0-.72.58c-.25.6.21,1.67.66,2.71.17.37.33.75.48,1.13a34.68,34.68,0,0,0,1.58,3.57.51.51,0,0,1,0,.48.53.53,0,0,1-.4.26l-4.61.35c-.4,1.18-1.8,5.64-.8,8.5,1.16,3.31,6.76,6.88,6.82,6.91a.54.54,0,0,1,.23.4.5.5,0,0,1-.2.42s-1.08.91-.49,3c.65,2.34,5.21,6.19,8.55,7.82s9-.86,9.06-.88A.48.48,0,0,1,354.93,272.64Z" style="fill:#263238"></path><path d="M363.15,245.29s-.3-4.25-.55-6.57a11.37,11.37,0,0,0-1.07-3.84l-5.73,3-3.79,3a8.94,8.94,0,0,0-1.83-3.44l-1.6-2.08s-2.65,2.38-3.36,4.72l-.72,2.34-5.09-2.19s-.82,5.83-.16,8.91a21.28,21.28,0,0,0,2.87,6.31s.91,5.4,4.85,8.2,10.38,4.77,12.87,3.93a35.22,35.22,0,0,0,4.79-2.05l-3-3.8s5.39-.91,6.92-1.72l1.53-.81-4.55-4s.56-.79,3-3.56a19.5,19.5,0,0,0,3.49-7.25Z" style="fill:#fff"></path><path d="M358.42,268.31c-3.15,0-8.33-1.78-11.74-4.21-3.8-2.7-4.88-7.6-5-8.42a21.11,21.11,0,0,1-2.89-6.4c-.67-3.13.12-8.84.16-9.08a.51.51,0,0,1,.25-.37.52.52,0,0,1,.44,0l4.58,2,.55-1.8c.74-2.45,3.39-4.86,3.51-5a.46.46,0,0,1,.38-.12.51.51,0,0,1,.35.19l1.6,2.09a11.52,11.52,0,0,1,1.69,2.9l3.22-2.55,5.81-3.1a.5.5,0,0,1,.38,0,.46.46,0,0,1,.29.24,12,12,0,0,1,1.12,4c.2,1.82.43,4.87.52,6.07L372,244a.52.52,0,0,1,.42.17.56.56,0,0,1,.11.45,19.9,19.9,0,0,1-3.61,7.46c-1.54,1.74-2.33,2.7-2.7,3.16l4.2,3.64a.5.5,0,0,1-.1.82l-1.52.81a31.72,31.72,0,0,1-6.25,1.63l2.48,3.14a.51.51,0,0,1,.1.41.5.5,0,0,1-.26.34A36,36,0,0,1,360,268.1,5.21,5.21,0,0,1,358.42,268.31ZM339.83,241c-.19,1.6-.6,5.72-.09,8.08a21,21,0,0,0,2.79,6.14.5.5,0,0,1,.08.2c0,.05.93,5.23,4.65,7.87s10.07,4.66,12.42,3.87a36.91,36.91,0,0,0,4.18-1.75l-2.62-3.32a.51.51,0,0,1-.08-.49.52.52,0,0,1,.39-.31,37.45,37.45,0,0,0,6.77-1.67l.88-.47-4-3.47a.51.51,0,0,1-.08-.67s.61-.84,3-3.6a17.93,17.93,0,0,0,3.2-6.36l-8.17.74a.47.47,0,0,1-.36-.11.5.5,0,0,1-.18-.35s-.3-4.27-.55-6.55a12.18,12.18,0,0,0-.8-3.2L356,238.36l-3.72,2.95a.51.51,0,0,1-.49.08.48.48,0,0,1-.31-.39,8.93,8.93,0,0,0-1.74-3.21l-1.26-1.65a12,12,0,0,0-2.83,4.13l-.71,2.34a.5.5,0,0,1-.68.31Z" style="fill:#263238"></path><path d="M339.25,249.18l4.52-1.84a8,8,0,0,1,1.64,4.89c.08,3.17.44,7.46.44,7.46a13.25,13.25,0,0,1,6.06-.66,16.06,16.06,0,0,1,5.23,1.39s.63,4.8-2.89,6" style="fill:#fff"></path><path d="M354.25,267a.5.5,0,0,1-.16-1c2.64-.92,2.64-4.25,2.58-5.22a17.26,17.26,0,0,0-4.82-1.22,12.68,12.68,0,0,0-5.81.63.55.55,0,0,1-.45,0,.5.5,0,0,1-.23-.39s-.37-4.34-.45-7.48a7.85,7.85,0,0,0-1.31-4.31l-4.16,1.7a.5.5,0,0,1-.38-.93l4.52-1.84a.5.5,0,0,1,.56.13,8.41,8.41,0,0,1,1.77,5.22c.06,2.39.29,5.48.39,6.79a14.3,14.3,0,0,1,5.68-.47,16.39,16.39,0,0,1,5.4,1.44.52.52,0,0,1,.26.38c.23,1.8-.14,5.48-3.22,6.56A.51.51,0,0,1,354.25,267Z" style="fill:#263238"></path><path d="M350.47,272a24.8,24.8,0,0,0-5.34-5.82,29.35,29.35,0,0,0-7.82-3.86s-.58-7.71-1.9-10.21-2.4-4.49-2.4-4.49" style="fill:#fff"></path><path d="M350.47,272.49a.52.52,0,0,1-.43-.24,24.51,24.51,0,0,0-5.21-5.68,29,29,0,0,0-7.67-3.78.49.49,0,0,1-.35-.44c0-.08-.58-7.63-1.85-10l-2.39-4.5a.5.5,0,1,1,.89-.47l2.39,4.5c1.21,2.29,1.8,8.53,1.93,10.07a28.66,28.66,0,0,1,7.65,3.83,25.31,25.31,0,0,1,5.46,6,.51.51,0,0,1-.42.77Z" style="fill:#263238"></path><path d="M351.91,259a39.62,39.62,0,0,1-3.8-5.35c-1.2-2.25-1.47-8.19,0-6.07a10.8,10.8,0,0,1,1.75,3.88s1-5.35,1.93-3.6.38,4.93.38,4.93,4.35-3.27,3.65-1a7,7,0,0,1-1.82,3.22s3.63-1.61,3.79-.1-2.71,2.73-2.71,2.73l2.09,2.73Z" style="fill:#fff"></path><path d="M357.14,260.92H357l-5.22-1.39a.63.63,0,0,1-.26-.16,39.49,39.49,0,0,1-3.86-5.44c-.87-1.64-1.66-6.45-.49-7.16.25-.15.75-.27,1.32.56a13.57,13.57,0,0,1,1.24,2.27c.44-1.6.95-2.45,1.51-2.54.22,0,.63,0,.95.61a8.11,8.11,0,0,1,.56,4.1c1.27-.85,2.61-1.52,3.25-1.08.36.25.44.69.25,1.31a9,9,0,0,1-.87,2,3.35,3.35,0,0,1,2.3,0,1.11,1.11,0,0,1,.57.89c.15,1.4-1.51,2.48-2.44,3l1.72,2.25a.5.5,0,0,1,0,.58A.51.51,0,0,1,357.14,260.92Zm-4.94-2.33,3.65,1-1.2-1.57a.49.49,0,0,1,.2-.76c.83-.35,2.51-1.35,2.42-2.22,0-.09,0-.11-.08-.12-.45-.27-2.05.19-3,.62a.49.49,0,0,1-.63-.19.51.51,0,0,1,.11-.65,6.54,6.54,0,0,0,1.66-3l0-.16a10.57,10.57,0,0,0-2.91,1.68.5.5,0,0,1-.79-.48s.5-3-.31-4.57a13.45,13.45,0,0,0-1,3.41.5.5,0,0,1-.49.41h0a.5.5,0,0,1-.49-.42,10.42,10.42,0,0,0-1.66-3.68l0,0a11.82,11.82,0,0,0,.9,5.58A38.44,38.44,0,0,0,352.2,258.59Z" style="fill:#263238"></path><path d="M405.39,299.56s6.8.31,9.57.8,6.55,1.52,6.55,1.52l-6.28,3,5.31.21a85.22,85.22,0,0,1-7.34,8.4c-4,3.93-9.29,6.76-11.34,7s-7.93-.42-9.82-2.27-2.61-7.22-1.21-10.65a15.75,15.75,0,0,1,6.16-7.24C398.8,299.32,405.39,299.56,405.39,299.56Z" style="fill:#fff"></path><path d="M401,321c-2.55,0-7.53-.68-9.33-2.46-2.08-2-2.75-7.69-1.33-11.19a16.38,16.38,0,0,1,6.4-7.5c1.87-1,8-.81,8.65-.78h0c.28,0,6.87.32,9.64.81s6.55,1.51,6.59,1.52a.51.51,0,0,1,.37.44.51.51,0,0,1-.29.5l-4.45,2.13,3.29.12a.51.51,0,0,1,.43.29.49.49,0,0,1-.05.51,84.64,84.64,0,0,1-7.39,8.47c-3.86,3.79-9.33,6.88-11.64,7.1C401.67,321,401.37,321,401,321Zm2.63-21c-2.22,0-5.36.13-6.42.7a15.41,15.41,0,0,0-5.94,7c-1.38,3.41-.54,8.49,1.1,10.1s7.47,2.33,9.42,2.13,7.08-2.92,11-6.82a83.57,83.57,0,0,0,6.7-7.58l-4.34-.17a.5.5,0,0,1-.47-.4.48.48,0,0,1,.27-.55l5.05-2.42c-1.34-.34-3.47-.86-5.19-1.16-2.68-.47-9.33-.78-9.5-.79C404.94,300,404.34,300,403.65,300Z" style="fill:#263238"></path><path d="M390.66,301.52s3.29-3.91,7.66-4.45a49,49,0,0,1,12.54.64,13.66,13.66,0,0,1,2.07.86s-7.27,3.18-10.61,5-10.06,4.67-10.06,4.67,9.57.79,14.3.59a64.4,64.4,0,0,0,9.1-1.1s-7.4,6.29-12.71,8.77a66.5,66.5,0,0,1-10.85,3.84s10.75,0,14.18-1.31,7-3,7-3-2.82,5.45-7.3,7.13-13.41,1.07-14.72,0-3.19-3-3.19-3-1.31-6.47-1.51-8.51a39.74,39.74,0,0,1-.06-4.81Z" style="fill:#fff"></path><path d="M398.39,324.63c-3.45,0-6.63-.47-7.46-1.17-1.3-1.1-3.14-2.9-3.22-3a.51.51,0,0,1-.14-.26c-.05-.26-1.32-6.52-1.52-8.57a43.58,43.58,0,0,1-.06-4.88.49.49,0,0,1,.11-.28l4.17-5.28h0c.14-.17,3.46-4.07,8-4.63a49.46,49.46,0,0,1,12.74.66,14.61,14.61,0,0,1,2.17.9.51.51,0,0,1,.26.47.48.48,0,0,1-.3.43c-.07,0-7.29,3.19-10.58,5-2.24,1.19-6,2.88-8.24,3.87,3.06.22,8.9.59,12.23.44a66.12,66.12,0,0,0,9-1.08.48.48,0,0,1,.55.27.51.51,0,0,1-.13.6c-.3.25-7.51,6.35-12.81,8.83a60.71,60.71,0,0,1-7.27,2.8c3.41-.12,8.17-.42,10.2-1.19,3.37-1.27,6.91-3,6.95-3a.49.49,0,0,1,.57.11.47.47,0,0,1,.09.57c-.12.23-3,5.65-7.57,7.38A24.09,24.09,0,0,1,398.39,324.63Zm-9.87-4.76c.42.41,2,1.9,3.05,2.82s9.7,1.63,14.22-.06c2.88-1.08,5.07-3.83,6.19-5.51-1.37.63-3.48,1.56-5.53,2.33-3.47,1.32-13.91,1.34-14.35,1.35h0a.5.5,0,0,1-.12-1,66.1,66.1,0,0,0,10.76-3.8c3.78-1.77,8.7-5.54,11.12-7.49a64.26,64.26,0,0,1-7.28.77c-4.71.19-14.27-.59-14.36-.6a.48.48,0,0,1-.45-.41.49.49,0,0,1,.29-.54c.07,0,6.73-2.89,10-4.65,2.58-1.38,7.52-3.59,9.64-4.53a9.78,9.78,0,0,0-1-.37,48.35,48.35,0,0,0-12.33-.63c-4.06.51-7.2,4.12-7.33,4.28L387,307a39.11,39.11,0,0,0,.07,4.58C387.23,313.38,388.32,318.89,388.52,319.87Z" style="fill:#263238"></path><path d="M359,310.46s14.5-3.8,19.88-5.42a61.06,61.06,0,0,1,9.15-2.1,26.78,26.78,0,0,1,2.34-5,13.27,13.27,0,0,1,3.59-3.35s-3,4.11-3.28,6.95a29.37,29.37,0,0,0,.17,6s3.35-1.44,4.19-1.89a17.23,17.23,0,0,1,3.3-.86s-2.69,2.69-3.72,3.78a32.19,32.19,0,0,1-3.3,3.2c-.91.66-1.31,1.24-.71,2.71s.66,3.23,1.45,3.71a9.22,9.22,0,0,1,1.59,1.3,8.42,8.42,0,0,0,2.94,1.47,17.82,17.82,0,0,0,2.34.36c.5-.08,4.24-.12,4.24-.12a24.7,24.7,0,0,1-6.31,1.95c-3.17.44-3.51.8-4.15.61a8.16,8.16,0,0,1-1.44-.67s-10.38.48-16.76-.05-10.24-.06-14.73-1.42-5-3.05-5.46-5.86S359,310.46,359,310.46Z" style="fill:#BEF264"></path><path d="M393,324.3a1.45,1.45,0,0,1-.5-.08,7.4,7.4,0,0,1-1.41-.64,163.4,163.4,0,0,1-16.68-.06c-2.14-.17-4-.24-5.68-.3a33.85,33.85,0,0,1-9.15-1.13c-4.75-1.44-5.37-3.33-5.82-6.27-.48-3.14,4.74-5.7,5-5.81l.09,0c.15,0,14.56-3.82,19.86-5.42a65.66,65.66,0,0,1,8.93-2.08,25.74,25.74,0,0,1,2.29-4.83,13.76,13.76,0,0,1,3.74-3.51.51.51,0,0,1,.63.09.5.5,0,0,1,0,.63s-2.92,4-3.18,6.71a27.7,27.7,0,0,0,.08,5.23c1-.43,2.95-1.28,3.54-1.6a17.1,17.1,0,0,1,3.45-.92.5.5,0,0,1,.53.27.49.49,0,0,1-.09.58s-2.69,2.7-3.7,3.77a32.55,32.55,0,0,1-3.38,3.26c-.77.57-1,.92-.54,2.12a12.48,12.48,0,0,1,.54,1.75c.19.75.38,1.52.7,1.72a9.84,9.84,0,0,1,1.7,1.38,7.62,7.62,0,0,0,2.63,1.32,10.44,10.44,0,0,1,1.39.25,2.74,2.74,0,0,0,.82.12c.51-.09,3.69-.12,4.32-.13h0a.49.49,0,0,1,.49.39.52.52,0,0,1-.27.57,25.54,25.54,0,0,1-6.46,2c-1.45.2-2.3.39-2.86.51A5.51,5.51,0,0,1,393,324.3Zm-1.79-1.72a.48.48,0,0,1,.26.07,8.6,8.6,0,0,0,1.32.62c.21.06.37,0,1-.11s1.44-.31,2.93-.52a20.73,20.73,0,0,0,3.65-.9c-.71,0-1.27,0-1.42.06a3.15,3.15,0,0,1-1.21-.13,10.31,10.31,0,0,0-1.27-.22,8.34,8.34,0,0,1-3.19-1.58,11.2,11.2,0,0,0-1.55-1.27c-.67-.4-.9-1.29-1.16-2.33a12.48,12.48,0,0,0-.49-1.61c-.7-1.7-.19-2.53.87-3.3a32.24,32.24,0,0,0,3.24-3.15c.58-.61,1.7-1.74,2.56-2.61a7.71,7.71,0,0,0-1.55.49c-.84.45-4.09,1.84-4.23,1.9a.49.49,0,0,1-.44,0,.47.47,0,0,1-.25-.36,29.82,29.82,0,0,1-.17-6.13,13.33,13.33,0,0,1,1.75-4.64,8.91,8.91,0,0,0-1.14,1.37,26.16,26.16,0,0,0-2.28,4.9.51.51,0,0,1-.42.33,63.21,63.21,0,0,0-9.07,2.08c-5.17,1.57-18.92,5.18-19.85,5.42-1.36.67-4.66,2.76-4.36,4.74.4,2.62.84,4.16,5.12,5.46a32.87,32.87,0,0,0,8.89,1.09c1.67.06,3.57.13,5.73.31,6.28.52,16.6.05,16.7.05Z" style="fill:#263238"></path><path d="M390.87,321.88a.5.5,0,0,1-.48-.38s-1.26-4.85-2.55-9a19.49,19.49,0,0,1-.69-8.2.51.51,0,0,1,.58-.4.49.49,0,0,1,.41.57,18.62,18.62,0,0,0,.65,7.73c1.3,4.18,2.55,9,2.57,9.05a.5.5,0,0,1-.36.61Z" style="fill:#263238"></path><path d="M236.78,284.42s-7.67,4.6-4.6,10.74,14.57,16.1,14.57,16.1,10.22-2,17.12-4.86,11.51-11.75,11.51-11.75S244.7,279.82,236.78,284.42Z" style="fill:#fff"></path><path d="M246.75,311.76a.5.5,0,0,1-.33-.12c-.47-.41-11.61-10.11-14.69-16.26-3.24-6.47,4.71-11.34,4.79-11.39h0c8.06-4.68,37.8,9.59,39.06,10.21a.44.44,0,0,1,.26.29.5.5,0,0,1,0,.38c-.19.38-4.77,9.15-11.76,12s-17.11,4.86-17.21,4.88ZM237,284.85c-.34.21-7.22,4.46-4.41,10.08s12.78,14.48,14.27,15.79a115.28,115.28,0,0,0,16.8-4.78c5.77-2.35,10-9.23,11-11.07C270.78,293,244.11,280.74,237,284.85Z" style="fill:#263238"></path><path d="M228.09,251.19s-15.08-.26-16.36,5.88.77,17.13,6.64,23.77,21.73,5.88,21.73,5.88-5.37,3.58,3.58,6.65,27.1,8.18,33,5.62S282,288,282,288s3.33,10,7.16,10S317,283.4,318.06,278s-10.73-9.46-10.73-9.46a15.64,15.64,0,0,0,8.43-7.92,19.11,19.11,0,0,0,1-13.8c-1-3.33-2.3-3.84-3.33-3.58s-22.75.76-22.75.76,10.23-17.63,10-23.26-13.8-10-17.63-8.43S269.5,233,269,234.58s-40.39-10-45.76-6.14-10,9.2-8.69,14.32S228.09,251.19,228.09,251.19Z" style="fill:#fff"></path><path d="M272.17,300.17c-7.88,0-20.93-3.68-28.65-6.33-3.43-1.18-5.28-2.61-5.49-4.27a3,3,0,0,1,.77-2.32c-4,0-15.77-.39-20.8-6.08-5.9-6.67-8.1-17.75-6.76-24.2,1-4.76,9.31-5.92,13.89-6.2-3.79-1.34-10.13-4.11-11.07-7.89-1.63-6.51,5.67-12.55,8.88-14.85s17.13.37,33.48,3.91c5.44,1.18,11.05,2.4,12.17,2.28,1-2.49,10.24-20.73,14.27-22.35,2.77-1.11,9.81.59,14.21,3.42,2.6,1.68,4,3.57,4.11,5.46.23,5.09-7.6,19.25-9.59,22.76,8.64-.2,21-.55,21.75-.73,1.67-.42,3,.9,3.92,3.92a19.65,19.65,0,0,1-1,14.15,15.88,15.88,0,0,1-7.56,7.69c3,1.23,10.8,4.86,9.9,9.58-1.07,5.59-25.1,20.35-29.38,20.35-3,0-5.47-4.91-6.75-8-.31,2.81-1.48,7.19-5.58,9A12.2,12.2,0,0,1,272.17,300.17ZM240.1,286.22a.5.5,0,0,1,.28.92s-1.53,1-1.36,2.31c.11.85,1,2.15,4.82,3.44,8.82,3,27,8.09,32.62,5.64,5.48-2.38,5.07-10.42,5.06-10.5a.51.51,0,0,1,.41-.52.49.49,0,0,1,.57.33c.89,2.68,3.83,9.63,6.68,9.63,3.56,0,27.43-14.47,28.39-19.53.93-4.89-10.29-8.86-10.4-8.9a.48.48,0,0,1-.34-.47.5.5,0,0,1,.33-.47,15.26,15.26,0,0,0,8.14-7.65,18.74,18.74,0,0,0,1-13.46c-.75-2.41-1.66-3.5-2.73-3.24s-20.62.73-22.85.78a.5.5,0,0,1-.45-.24.52.52,0,0,1,0-.51c.1-.17,10.15-17.57,9.9-23-.09-2-2-3.61-3.65-4.66-4.46-2.87-11-4.23-13.3-3.33-3.57,1.43-13.28,20.47-13.77,21.93-.29.89-1.66.7-13.25-1.81s-29.46-6.38-32.69-4.07c-3.05,2.17-10,7.87-8.5,13.78,1.2,4.77,13.08,8.05,13.2,8.08a.5.5,0,0,1-.14,1c-.15,0-14.68-.18-15.86,5.48-1.3,6.21.83,16.9,6.53,23.34s21.17,5.72,21.33,5.71Z" style="fill:#263238"></path><path d="M295.56,265.68s4.86,3.83,9.38-.69,13.91-19.13,11.83-27.47-12.17-20.17-18.43-19.82-13.91,1-16.69,6.61-10.43,20.51-13.91,24-2.09,7.3,4.17,10.78S295.56,265.68,295.56,265.68Z" style="fill:#fff"></path><path d="M300.06,267.69a8.71,8.71,0,0,1-4.71-1.53c-1.63-.3-17.62-3.28-23.68-6.65-3.82-2.12-5.92-4.39-6.25-6.74a5.68,5.68,0,0,1,2-4.83c3.5-3.5,11.46-19.14,13.82-23.86,3.05-6.1,11.85-6.59,17.11-6.88h.29c6.49,0,16.57,11.86,18.65,20.21,2.22,8.86-7.78,23.77-11.95,27.94A7.29,7.29,0,0,1,300.06,267.69Zm-1.45-49.5h-.25c-6.82.38-13.69,1.18-16.27,6.33-3,6.08-10.49,20.61-14,24.12a4.71,4.71,0,0,0-1.68,4c.28,2,2.27,4.08,5.74,6,6.12,3.4,23.32,6.52,23.49,6.55a.55.55,0,0,1,.22.1,6.5,6.5,0,0,0,8.73-.66c4.41-4.41,13.71-18.91,11.69-27C314.32,229.79,304.61,218.19,298.61,218.19Z" style="fill:#263238"></path><path d="M281.65,242s6.26-13.91,5.91-17.39-5.91-11.47-10.09-12.86-11.12-2.78-20.86,1.39-12.17,5.91-9.73,10.08,14.25,21.56,16.34,25.39,8,4.86,10.08,1.39S281.65,242,281.65,242Z" style="fill:#fff"></path><path d="M269.24,252.65h-.14a7.55,7.55,0,0,1-6.32-3.77c-1.12-2-5.06-8-8.86-13.8-3.27-5-6.35-9.63-7.48-11.57a4.69,4.69,0,0,1-.78-3.9c.76-2.28,3.93-4,10.75-6.89,7.49-3.21,14.43-3.67,21.22-1.41,4.43,1.48,10.07,9.76,10.42,13.29s-5.69,17.07-5.95,17.64a.45.45,0,0,1-.16.2c-.06.05-6.2,4.5-8.21,7.85A5,5,0,0,1,269.24,252.65Zm-.16-41.74a31,31,0,0,0-12.27,2.73c-6.27,2.69-9.57,4.4-10.2,6.29a3.77,3.77,0,0,0,.7,3.08c1.11,1.91,4.19,6.58,7.44,11.52,3.82,5.8,7.77,11.79,8.91,13.88a6.51,6.51,0,0,0,5.46,3.24,4.11,4.11,0,0,0,3.75-1.87c2-3.31,7.5-7.43,8.38-8.07,1.76-3.93,6.08-14.29,5.81-17-.32-3.22-5.7-11.09-9.74-12.44A26,26,0,0,0,269.08,210.91ZM281.65,242h0Z" style="fill:#263238"></path><path d="M263.22,248.65s1.39-6.61-7.3-18.09-10.44-12.51-19.82-9.38-18.78,14.6-17.74,18.08,2.44,3.82,16.69,7.65,24.34,10.08,26.43,8.69S263.22,248.65,263.22,248.65Z" style="fill:#fff"></path><path d="M260.64,256.3c-1.59,0-4.26-1.1-8.37-2.78a140.78,140.78,0,0,0-17.35-6.13l-.33-.09c-14.12-3.79-15.59-4.18-16.71-7.9s8.38-15.47,18.06-18.7c9.83-3.28,11.73-1.85,20.37,9.56,8.36,11,7.55,17.63,7.41,18.42,0,.83.23,5.87-2,7.34A2,2,0,0,1,260.64,256.3Zm-17.73-36.14a22.15,22.15,0,0,0-6.66,1.49c-9.37,3.13-18.31,14.47-17.41,17.46s2,3.47,16,7.22l.33.09a143.74,143.74,0,0,1,17.47,6.17c4.13,1.7,7.7,3.16,8.55,2.59,1.51-1,1.61-5,1.52-6.5a.66.66,0,0,1,0-.14c0-.08,1.19-6.58-7.21-17.67C249.54,223,246.91,220.16,242.91,220.16Z" style="fill:#263238"></path><path d="M232.27,276.46s-5.56,4.87-2.78,6.61,16.69,7.3,23.3,6.95,10.08-4.86,11.47-13.21,4.17-11.82,2.78-16l-1.39-4.18s-24,12.87-29.21,14.26S232.27,276.46,232.27,276.46Z" style="fill:#fff"></path><path d="M252.18,290.54c-6.87,0-20.1-5.26-23-7.05a2,2,0,0,1-1-1.59c-.17-2.09,2.65-4.84,3.51-5.63-.13-1.06-.19-4.58,4.58-5.85,5.11-1.36,28.87-14.09,29.11-14.22a.47.47,0,0,1,.42,0,.51.51,0,0,1,.29.3l1.39,4.18c.89,2.67.17,5-.82,8.34a59.63,59.63,0,0,0-1.95,7.89c-1.49,8.95-5.28,13.28-11.94,13.63Zm13.18-33.18c-3.62,1.94-23.94,12.73-28.79,14-4.65,1.24-3.85,4.81-3.81,5a.52.52,0,0,1-.16.5c-1,.86-3.51,3.44-3.39,5a1,1,0,0,0,.54.83c2.8,1.74,16.66,7.21,23,6.87,6.11-.32,9.61-4.38,11-12.79a60.24,60.24,0,0,1,2-8c1-3.23,1.62-5.36.83-7.74Z" style="fill:#263238"></path><path d="M264.61,254.56s-33-10.09-39.29-8.35-7,12.17-4.87,17.39,3.82,11.47,8.69,12.17,23.3-8,29.56-10.43S269.13,256,264.61,254.56Z" style="fill:#fff"></path><path d="M229.74,276.31a4.57,4.57,0,0,1-.67-.05c-4.55-.65-6.47-5.66-8.32-10.5-.25-.67-.51-1.33-.77-2-1.38-3.46-1.69-9.48.45-13.81a7.66,7.66,0,0,1,4.75-4.24c6.34-1.75,38.22,7.94,39.57,8.35h0a2.89,2.89,0,0,1,2.25,2.74c.11,3.06-3.69,7.25-8.13,9-1.42.55-3.47,1.43-5.85,2.45C245,271.67,234.17,276.31,229.74,276.31Zm-2.42-29.81a7.36,7.36,0,0,0-1.87.19,6.59,6.59,0,0,0-4.12,3.72c-2,3.93-1.74,9.69-.42,13,.26.65.52,1.32.77,2,1.75,4.57,3.56,9.31,7.53,9.87,3.61.52,15.54-4.57,23.43-7.94,2.38-1,4.44-1.9,5.88-2.46,4.39-1.71,7.57-5.64,7.49-8a1.93,1.93,0,0,0-1.55-1.83C264.1,254.92,236.39,246.5,227.32,246.5Z" style="fill:#263238"></path><path d="M265.65,256.64s-3.48,24-2.43,29.21,10.43,5.56,15.64,1.74,19.13-18.78,20.52-21.91,3.82-7.3-5.56-6.6-14.61-.7-18.43-2.09c-3.47-1.26-6.08-3.66-8.86-1.26A7.7,7.7,0,0,0,265.65,256.64Z" style="fill:#fff"></path><path d="M270.58,290.66a11.59,11.59,0,0,1-4.15-.71,5.45,5.45,0,0,1-3.7-4c-1.05-5.24,2.28-28.4,2.43-29.38a.51.51,0,0,1,.1-.24,8,8,0,0,1,.94-1c2.36-2,4.63-1,7,.17.74.34,1.51.71,2.32,1,3.85,1.4,9,2.74,18.22,2.06,3.85-.29,6.08.19,7,1.51,1,1.47.11,3.49-.7,5.27l-.24.53c-1.46,3.27-15.56,18.35-20.68,22.1A15,15,0,0,1,270.58,290.66Zm-4.45-33.81c-.29,2-3.4,24-2.42,28.9a4.58,4.58,0,0,0,3.08,3.26c3.4,1.32,8.58.52,11.78-1.82,5.46-4,19.05-18.79,20.35-21.71l.25-.54c.69-1.53,1.49-3.28.79-4.28s-2.74-1.34-6.11-1.08c-9.38.69-14.68-.68-18.63-2.12-.86-.31-1.64-.68-2.41-1-2.37-1.12-4.08-1.92-6-.31A7.28,7.28,0,0,0,266.13,256.85Z" style="fill:#263238"></path><path d="M225.31,229.53l11.56,4.3" style="fill:#fff"></path><path d="M236.87,234.33l-.17,0L225.14,230l.35-.93s8.92,3.3,11.56,4.29a.5.5,0,0,1,.29.64A.48.48,0,0,1,236.87,234.33Z" style="fill:#263238"></path><path d="M245.36,233.93a20.16,20.16,0,0,1,2.09,2.21" style="fill:#fff"></path><path d="M247.45,236.64a.47.47,0,0,1-.39-.19,19.64,19.64,0,0,0-2-2.15.48.48,0,0,1,0-.7.49.49,0,0,1,.7,0,19.2,19.2,0,0,1,2.15,2.27.5.5,0,0,1-.08.7A.45.45,0,0,1,247.45,236.64Z" style="fill:#263238"></path><path d="M234.23,228.87a21,21,0,0,1,9.05,3.43" style="fill:#fff"></path><path d="M243.28,232.8a.46.46,0,0,1-.28-.08,20.7,20.7,0,0,0-8.81-3.35.5.5,0,0,1-.46-.54.49.49,0,0,1,.54-.45,21.18,21.18,0,0,1,9.29,3.51.49.49,0,0,1,.13.69A.47.47,0,0,1,243.28,232.8Z" style="fill:#263238"></path><path d="M301.73,238c-.93.53-1.85,1.12-2.75,1.76" style="fill:#fff"></path><path d="M299,240.28a.5.5,0,0,1-.29-.91c.87-.62,1.81-1.22,2.79-1.79a.52.52,0,0,1,.69.19.51.51,0,0,1-.19.68c-1,.55-1.87,1.13-2.71,1.73A.45.45,0,0,1,299,240.28Z" style="fill:#263238"></path><path d="M314.51,233.17a46.48,46.48,0,0,0-10.23,3.51" style="fill:#fff"></path><path d="M304.28,237.18a.48.48,0,0,1-.45-.28.5.5,0,0,1,.23-.67,47.44,47.44,0,0,1,10.36-3.55.49.49,0,0,1,.58.39.5.5,0,0,1-.4.59,47.37,47.37,0,0,0-10.11,3.47A.54.54,0,0,1,304.28,237.18Z" style="fill:#263238"></path><path d="M304.93,231.85A34.68,34.68,0,0,0,292,241.43" style="fill:#fff"></path><path d="M292,241.93a.56.56,0,0,1-.31-.11.52.52,0,0,1-.08-.71,34.8,34.8,0,0,1,13.1-9.73.49.49,0,0,1,.64.28.49.49,0,0,1-.28.65,34.5,34.5,0,0,0-12.67,9.43A.53.53,0,0,1,292,241.93Z" style="fill:#263238"></path><line x1="274.21" y1="269.18" x2="285.44" y2="275.78" style="fill:#fff"></line><path d="M285.44,276.29a.59.59,0,0,1-.26-.07L274,269.61a.51.51,0,0,1-.18-.69.51.51,0,0,1,.69-.17l11.23,6.6a.51.51,0,0,1,.18.69A.5.5,0,0,1,285.44,276.29Z" style="fill:#263238"></path><path d="M283.46,281.73a15.56,15.56,0,0,0-8-7.44" style="fill:#fff"></path><path d="M283.46,282.23a.5.5,0,0,1-.46-.29,15,15,0,0,0-7.68-7.18.51.51,0,0,1-.28-.65.49.49,0,0,1,.64-.29,15.86,15.86,0,0,1,8.23,7.71.5.5,0,0,1-.25.66A.51.51,0,0,1,283.46,282.23Z" style="fill:#263238"></path><path d="M257.48,268.83s-9.2-2.05-13-4.86-2-4.86-.77-3.83,12.27,4.6,12.27,4.6a27.81,27.81,0,0,1-9.46-6.14c-3.83-4.09-3.32-5.62-.25-3.32S258,263.46,258,263.46s-7.15-4.6-9.45-9.46-.26-5.37,1.28-3.83,11.75,9.71,11.75,9.71a39.46,39.46,0,0,1-6.9-10.48c-2.3-5.62-.51-5.88,1.54-4.34s7.41,11.24,7.41,11.24-5.63-18.15-3.84-17.12c0,0,1-1,2.05,1.27s3.82,16.19,3.82,16.19-1.78-14.91-.75-17.46,2.3,1.27,2.55,3.32.77,12,.77,12,4.09-16.36,6.13-14.31S273.3,250,273.3,250s-3,6.52-3,7.29,6.65-7.16,7.67-12,2.56-3.83,2.56-.77-.52,7-2.81,9.72a23.6,23.6,0,0,0-3.33,5.11s6.91-5.37,10.23-7.92,4.34.51,2.3,2.3-9.2,6.9-9.2,6.9l-2.3,1.79s12.52-5.88,11.24-2.56-4.85,4.86-9.71,6.14-1.53-1.54-4.86,1.27-5.62,2.56-6.39,2.3-4.34,2.31-6.9,1.79.51-3.57.51-3.57Z" style="fill:#fff"></path><path d="M259.48,272a3.8,3.8,0,0,1-.82-.08,1.59,1.59,0,0,1-1.36-1,2.09,2.09,0,0,1,.24-1.5h-.16c-.38-.09-9.35-2.1-13.23-4.94-2.37-1.75-2.59-3.11-2.51-3.77a1.39,1.39,0,0,1,.83-1.14,1.49,1.49,0,0,1,1.52.28,40.47,40.47,0,0,0,6,2.44,22.56,22.56,0,0,1-3.87-3.24c-2.41-2.57-3.3-4.24-2.64-5,.5-.56,1.49-.26,3,.9.91.69,2.34,1.7,3.89,2.79a15.69,15.69,0,0,1-2.34-3.45c-1.6-3.37-1.14-4.63-.48-5.1s1.67-.19,2.56.69,4.92,4.2,8,6.69a33.71,33.71,0,0,1-4-6.91c-1.28-3.12-1.46-4.9-.57-5.59.45-.34,1.31-.51,2.86.66,1.26.94,3.62,4.67,5.37,7.61-2.47-8.37-3.35-12.91-2.62-13.49a.56.56,0,0,1,.43-.14,1.33,1.33,0,0,1,.92-.17c.65.12,1.22.72,1.69,1.78a66.23,66.23,0,0,1,2,7.71c-.27-3.82-.39-7.7.12-9,.34-.84.77-1.23,1.33-1.16,1.57.21,2.18,4.56,2.19,4.61.16,1.31.43,5.75.6,8.87,1.25-4.52,3.39-11.26,5.15-11.75a1,1,0,0,1,1,.29c2.21,2.21-.61,9.54-.94,10.37-.9,1.93-1.82,4-2.4,5.42,1.92-2.28,5.37-7.1,6.07-10.43.55-2.59,1.32-3.84,2.22-3.75s1.33,1.24,1.33,3.08c0,4.34-1,7.72-2.93,10A25.67,25.67,0,0,0,276,257.5c2.29-1.78,6.1-4.74,8.32-6.45,2.39-1.84,3.5-.86,3.78-.51.75.91.37,2.52-.84,3.58-1.58,1.39-6.08,4.66-8.17,6.16,3.21-1.3,6.88-2.48,7.86-1.56a1.12,1.12,0,0,1,.19,1.34c-1.35,3.5-5,5.11-10,6.44-2.19.57-2.93.38-3.33.07-.24.18-.7.57-1.33,1.11-3.69,3.11-6.19,2.61-6.88,2.39a7.41,7.41,0,0,0-1.49.57A12.07,12.07,0,0,1,259.48,272Zm-.21-4.64a.5.5,0,0,1,.4.19.51.51,0,0,1,0,.66c-.65.65-1.53,1.85-1.37,2.38.06.21.36.31.6.35,1.44.29,3.35-.55,4.75-1.16,1.18-.52,1.76-.76,2.21-.61s2.54.64,5.91-2.21c1.82-1.54,2-1.7,2.53-1.18.31.3,1.54.06,2.52-.2,4.77-1.25,8.18-2.72,9.38-5.83a.52.52,0,0,0,0-.27c-.56-.54-5.53,1.07-10.62,3.46a.5.5,0,0,1-.64-.19.51.51,0,0,1,.12-.66l2.3-1.79c.09-.06,7.18-5.13,9.18-6.88.91-.8,1-1.82.72-2.2s-1.14-.29-2.39.67c-3.32,2.56-10.22,7.92-10.22,7.92a.49.49,0,0,1-.76-.59,23.22,23.22,0,0,1,3.39-5.23c2.23-2.66,2.7-6.58,2.7-9.4,0-1.39-.33-2-.46-2.09s-.56.37-1.11,3c-.87,4.15-6.91,12.47-8.15,12.47h0a.58.58,0,0,1-.49-.54c0-.8,2.16-5.51,3.09-7.5,1.14-2.87,2.47-8,1.15-9.28-1,.07-3.41,6.53-5.29,14.08a.51.51,0,0,1-.54.38.49.49,0,0,1-.45-.47c0-.1-.51-10-.76-12-.21-1.69-.93-3.54-1.33-3.73a5.54,5.54,0,0,0-.27.53c-.8,2,.3,13.11.79,17.22a.51.51,0,0,1-.42.56.52.52,0,0,1-.57-.4c0-.14-2.8-13.86-3.79-16.08-.44-1-.81-1.17-.95-1.2a.33.33,0,0,0-.29.08.53.53,0,0,1-.21.11c-.1,1.58,2,9.42,4.18,16.5a.51.51,0,0,1-.29.61.49.49,0,0,1-.63-.22c-1.48-2.67-5.67-9.88-7.27-11.08-.94-.7-1.5-.79-1.66-.67s-.68.59.88,4.42a38.93,38.93,0,0,0,6.81,10.33.5.5,0,0,1,0,.68.51.51,0,0,1-.68,0c-.42-.33-10.26-8.21-11.8-9.75-.59-.59-1.11-.69-1.27-.58s-.49,1.14.8,3.85c1.8,3.81,6.79,7.53,8.6,8.79l.69.47a.5.5,0,0,1-.56.83c-.05,0-.39-.25-.89-.61-2.3-1.56-8.43-5.74-10.89-7.59a5.77,5.77,0,0,0-1.64-1c.11.43.69,1.54,2.56,3.53a27.46,27.46,0,0,0,9.26,6,.5.5,0,0,1-.33.94c-1.13-.37-11.11-3.63-12.42-4.68a.53.53,0,0,0-.52-.14.41.41,0,0,0-.22.35c-.07.57.45,1.61,2.11,2.83,3.41,2.5,11.34,4.42,12.67,4.73l1.61-.93A.57.57,0,0,1,259.27,267.31Zm.27-27.7Z" style="fill:#263238"></path><path d="M268.46,417.26a47.4,47.4,0,0,1-18.09-13.67c-8.35-10.09-27.6-15.14-36.33-2.27s.66,22.85,10.2,28.35,30.26,10.59,40.11,5.67S274.94,420.14,268.46,417.26Z" style="fill:#8f8f8f"></path><path d="M253.71,437.85c-10.25,0-22.73-3.71-29.72-7.75-4.31-2.48-11.8-7.79-13.55-15.41-1-4.45.05-9,3.18-13.65a17.83,17.83,0,0,1,14.46-7.88,29.16,29.16,0,0,1,22.68,10.11,47.39,47.39,0,0,0,17.88,13.52h0a7.56,7.56,0,0,1,4.49,6.94c.09,3.7-2.12,8.81-8.59,12A24.61,24.61,0,0,1,253.71,437.85Zm-24.57-43.72c-.34,0-.67,0-1,0a16.91,16.91,0,0,0-13.68,7.44c-3,4.37-4,8.7-3,12.87,1.66,7.24,8.9,12.36,13.07,14.77,9.41,5.43,30,10.46,39.63,5.65,6.05-3,8.12-7.74,8-11.13a6.49,6.49,0,0,0-3.89-6A48.48,48.48,0,0,1,250,403.91,28.63,28.63,0,0,0,229.14,394.13Z" style="fill:#263238"></path><path d="M234.41,432a7,7,0,0,1-1.11-.09,5.62,5.62,0,0,1-2.19-.81c-.92-.61-1-1.24-.91-1.56s.3-.9,1.37-1.19a5.64,5.64,0,0,1,2.33,0c1.69.28,3.29,1.18,3.1,2.37h0c-.06.32-.31.9-1.38,1.18A5,5,0,0,1,234.41,432Zm-1.62-2.79a4,4,0,0,0-1,.11c-.41.11-.62.28-.64.38s.13.33.49.57a4.71,4.71,0,0,0,1.79.65,4.66,4.66,0,0,0,1.91,0c.41-.11.62-.27.64-.38s-.69-.95-2.28-1.22A6.17,6.17,0,0,0,232.79,429.23Zm3.71,1.38h0Z" style="fill:#263238"></path><path d="M224.73,420.28a4,4,0,0,1-.68-.06c-1.5-.25-2.54-1.23-2.37-2.24s1.48-1.61,3-1.36,2.54,1.24,2.37,2.25h0C226.88,419.72,225.93,420.28,224.73,420.28Zm-.74-2.71c-.72,0-1.27.26-1.32.57s.6.94,1.55,1.1,1.76-.16,1.82-.53-.6-.94-1.55-1.1A2.89,2.89,0,0,0,224,417.57Zm2.54,1.22h0Z" style="fill:#263238"></path><path d="M232.1,406.86a5.27,5.27,0,0,1-.87-.07c-2.07-.35-3.49-1.79-3.24-3.29s2.07-2.4,4.14-2.06a4.58,4.58,0,0,1,2.41,1.15,2.42,2.42,0,0,1,.83,2.14h0C235.15,406,233.79,406.86,232.1,406.86Zm-.83-4.49c-1.18,0-2.17.52-2.3,1.29s1,1.9,2.43,2.14,2.83-.32,3-1.23h0a1.46,1.46,0,0,0-.53-1.26,3.62,3.62,0,0,0-1.89-.88A4,4,0,0,0,231.27,402.37Zm3.6,2.28h0Z" style="fill:#263238"></path><path d="M252.44,421.62a4.73,4.73,0,0,1-.83-.07c-2.11-.35-3.61-2-3.34-3.6a2.72,2.72,0,0,1,1.54-1.95,4.59,4.59,0,0,1,2.79-.38,4.53,4.53,0,0,1,2.52,1.27,2.69,2.69,0,0,1,.82,2.34h0C255.71,420.65,254.21,421.62,252.44,421.62Zm-.68-5.07a3.37,3.37,0,0,0-1.5.34,1.73,1.73,0,0,0-1,1.22c-.18,1.09,1,2.19,2.52,2.45s3-.41,3.18-1.5a1.76,1.76,0,0,0-.56-1.48,3.55,3.55,0,0,0-2-1A4,4,0,0,0,251.76,416.55Zm3.69,2.6h0Z" style="fill:#263238"></path><path d="M256,433.86a4.84,4.84,0,0,1-.92-.08c-2.07-.34-3.5-1.73-3.27-3.14s2.06-2.26,4.12-1.91,3.5,1.73,3.26,3.14h0C259,433.08,257.67,433.86,256,433.86Zm-1-4.21c-1.16,0-2.1.46-2.22,1.15s1,1.75,2.45,2,2.82-.26,3-1.09-1-1.75-2.45-2A4.71,4.71,0,0,0,255,429.65Zm3.68,2.14h0Z" style="fill:#263238"></path><path d="M310.75,383.83A47.43,47.43,0,0,0,299.83,364c-8.79-9.72-11-29.49,3-36.28s22.51,3.95,26.58,14.18,6.12,31.48-.17,40.51S312.66,390.65,310.75,383.83Z" style="fill:#8f8f8f"></path><path d="M318.08,389.54a10.26,10.26,0,0,1-1.6-.13,7.57,7.57,0,0,1-6.22-5.45v0a47.5,47.5,0,0,0-10.8-19.64,29,29,0,0,1-6.74-23.89,17.79,17.79,0,0,1,9.88-13.18c5-2.43,9.71-2.83,14-1.18,7.28,2.83,11.45,11,13.3,15.63,4.2,10.54,6.2,31.75-.23,41C326.08,387.75,321.59,389.54,318.08,389.54Zm-6.85-5.83a6.5,6.5,0,0,0,5.42,4.71c3.35.57,8.3-.8,12.17-6.35,6.14-8.81,4.14-29.93.12-40-1.78-4.47-5.81-12.37-12.73-15-4-1.55-8.42-1.16-13.17,1.14a16.9,16.9,0,0,0-9.34,12.47,28.44,28.44,0,0,0,6.5,23A48.49,48.49,0,0,1,311.23,383.71Z" style="fill:#263238"></path><path d="M328.55,354.62c-.33,0-.93-.15-1.39-1.12a6.31,6.31,0,0,1-.1-4.58c.43-1,1-1.18,1.37-1.19h0c1.18,0,1.83,1.71,1.87,3.41s-.55,3.46-1.75,3.48h0Zm-.1-5.89h0c-.11,0-.3.19-.47.58a4.69,4.69,0,0,0-.3,1.89,4.74,4.74,0,0,0,.38,1.87c.19.38.38.55.49.55h0c.24,0,.8-.85.77-2.46S328.7,348.73,328.45,348.73Z" style="fill:#263238"></path><path d="M318.29,343.06c-1,0-1.83-1.17-1.86-2.68s.74-2.72,1.77-2.74h0c1,0,1.83,1.16,1.86,2.67s-.75,2.72-1.77,2.75h0Zm0-.5h0Zm-.08-3.92h0c-.38,0-.81.76-.79,1.72s.47,1.7.86,1.7h0c.38,0,.81-.77.79-1.73S318.6,338.64,318.22,338.64Z" style="fill:#263238"></path><path d="M303.08,349.27c-1.5,0-2.7-1.6-2.75-3.68A4.6,4.6,0,0,1,301,343a2.43,2.43,0,0,1,1.95-1.21,2.39,2.39,0,0,1,2,1.13,4.56,4.56,0,0,1,.79,2.55c0,2.1-1.11,3.77-2.63,3.8h0Zm0-.5h0Zm-.11-6h0a1.44,1.44,0,0,0-1.13.76,3.62,3.62,0,0,0-.52,2c0,1.47.83,2.7,1.75,2.7h0c.93,0,1.68-1.29,1.65-2.77a3.64,3.64,0,0,0-.6-2A1.46,1.46,0,0,0,303,342.79Z" style="fill:#263238"></path><path d="M314.45,371.72c-1.63,0-3-1.7-3-3.82a4.48,4.48,0,0,1,.77-2.71,2.65,2.65,0,0,1,2.15-1.24c1.64,0,3,1.68,3.08,3.82s-1.26,3.92-2.92,4h-.05Zm0-.5h0Zm-.1-6.27h0a1.72,1.72,0,0,0-1.35.81,3.54,3.54,0,0,0-.59,2.12c0,1.59,1,2.84,2.06,2.84h0c1.1,0,2-1.34,1.94-2.93S315.48,365,314.39,365Z" style="fill:#263238"></path><path d="M326.5,376.77a2.26,2.26,0,0,1-1.86-1.14,4.78,4.78,0,0,1-.74-2.55c0-2.09,1.05-3.76,2.48-3.79h0c1.42,0,2.56,1.61,2.61,3.68a4.89,4.89,0,0,1-.63,2.58,2.28,2.28,0,0,1-1.86,1.22Zm-.08-6.48h0c-.85,0-1.54,1.29-1.51,2.77a3.83,3.83,0,0,0,.57,2,1.4,1.4,0,0,0,1,.7h0a1.34,1.34,0,0,0,1-.74,3.84,3.84,0,0,0,.49-2C328,371.52,327.26,370.29,326.42,370.29Z" style="fill:#263238"></path><path d="M345.53,380.09s3-13.22-2.07-29.58,3.09-41,23.42-41.44,24.57,17,23.8,31.4-10,40.73-22.4,48S344.06,389.24,345.53,380.09Z" style="fill:#8f8f8f"></path><path d="M357.65,392.11a14.66,14.66,0,0,1-8.28-2.38A9.74,9.74,0,0,1,345,380v0A62.18,62.18,0,0,0,343,350.66c-3.24-10.39-1.21-23.22,5.06-31.93,4.69-6.5,11.2-10,18.83-10.16,7.25-.15,13,1.95,17.12,6.2,7.06,7.3,7.54,19.25,7.19,25.72-.79,14.8-10,41-22.64,48.41A21.59,21.59,0,0,1,357.65,392.11ZM346,380.18a8.67,8.67,0,0,0,3.91,8.73c3.71,2.53,10.41,3.63,18.1-.87,12.17-7.12,21.39-33.37,22.15-47.6.34-6.31-.11-17.94-6.91-25-3.91-4.05-9.42-6.05-16.38-5.9a22.3,22.3,0,0,0-18,9.75c-6,8.33-8,21.1-4.91,31A63.18,63.18,0,0,1,346,380.18Z" style="fill:#263238"></path><path d="M383.29,355.15a1.16,1.16,0,0,1-.52-.11h0a2,2,0,0,1-1-2,7.35,7.35,0,0,1,.67-2.91c1-2.27,2.62-3.61,3.78-3.1s1.3,2.61.31,4.88C385.7,353.89,384.39,355.15,383.29,355.15Zm-.12-1c.46.19,1.65-.71,2.47-2.59s.67-3.36.2-3.56-1.65.7-2.47,2.58a6.52,6.52,0,0,0-.58,2.49c0,.57.15,1,.38,1.08Z" style="fill:#263238"></path><path d="M377.56,335.81a1.56,1.56,0,0,1-.64-.13c-1.15-.5-1.46-2.26-.7-4a4.59,4.59,0,0,1,1.45-1.88,2,2,0,0,1,1.95-.33c1.15.5,1.46,2.25.7,4a4.55,4.55,0,0,1-1.45,1.87A2.24,2.24,0,0,1,377.56,335.81Zm1.42-5.47a1.29,1.29,0,0,0-.73.28,3.52,3.52,0,0,0-1.11,1.46c-.56,1.29-.36,2.45.18,2.68a1,1,0,0,0,1-.23,3.59,3.59,0,0,0,1.11-1.46c.56-1.29.36-2.45-.18-2.69A.61.61,0,0,0,379,330.34Z" style="fill:#263238"></path><path d="M356.5,335a2.6,2.6,0,0,1-1-.21c-1.74-.76-2.27-3.26-1.21-5.7s3.28-3.74,5-3a3,3,0,0,1,1.67,2.32,6,6,0,0,1-.46,3.38,5.86,5.86,0,0,1-2.16,2.63A3.4,3.4,0,0,1,356.5,335Zm1.74-8.11c-1.1,0-2.39,1.05-3.07,2.6-.81,1.86-.49,3.87.7,4.38a2,2,0,0,0,1.9-.28,4.85,4.85,0,0,0,1.78-2.19,4.73,4.73,0,0,0,.39-2.79,2,2,0,0,0-1.08-1.59A1.5,1.5,0,0,0,358.24,326.84Z" style="fill:#263238"></path><path d="M357.9,367.88a3,3,0,0,1-1.21-.25h0c-1.91-.83-2.58-3.54-1.49-6a5.75,5.75,0,0,1,2.33-2.72,3.21,3.21,0,0,1,5,2.17,6.09,6.09,0,0,1-2.74,6.29A3.8,3.8,0,0,1,357.9,367.88Zm1.52-8.54a2.8,2.8,0,0,0-1.39.41,4.72,4.72,0,0,0-1.92,2.25c-.86,2-.43,4.1,1,4.71h0a2.39,2.39,0,0,0,2.19-.24,4.72,4.72,0,0,0,1.92-2.25,4.77,4.77,0,0,0,.34-2.94,2.39,2.39,0,0,0-1.31-1.77A2.06,2.06,0,0,0,359.42,359.34Z" style="fill:#263238"></path><path d="M369.15,380.41a2.24,2.24,0,0,1-.93-.19h0a2.83,2.83,0,0,1-1.55-2.28,6.56,6.56,0,0,1,2.61-6,2.79,2.79,0,0,1,2.72-.42,2.76,2.76,0,0,1,1.55,2.28,6.17,6.17,0,0,1-.51,3.34,6.1,6.1,0,0,1-2.1,2.64A3.18,3.18,0,0,1,369.15,380.41Zm1.93-8.06a2.24,2.24,0,0,0-1.24.43,5.61,5.61,0,0,0-2.18,5,1.86,1.86,0,0,0,1,1.52h0a1.85,1.85,0,0,0,1.76-.34,5.52,5.52,0,0,0,2.18-5,1.88,1.88,0,0,0-.95-1.52A1.39,1.39,0,0,0,371.08,372.35Z" style="fill:#263238"></path><path d="M296.1,388.92S288,380,284.56,364.8s-20.38-30.65-35.45-21.38-10.47,24.9-3.57,35.79,25.29,27.16,37.6,27S301.21,395.38,296.1,388.92Z" style="fill:#8f8f8f"></path><path d="M282.94,406.7c-12.55,0-30.74-16.07-37.82-27.22-3.15-5-8.13-14.68-6-23.8,1.19-5.16,4.47-9.43,9.76-12.68a18.72,18.72,0,0,1,17.67-1.24c8.65,3.63,16.27,13.05,18.53,22.93a57.88,57.88,0,0,0,11.42,23.89l0,0a9.44,9.44,0,0,1,.94,10.09c-1.81,3.8-6.51,7.9-14.29,8Zm-24.23-65.58a17.6,17.6,0,0,0-9.34,2.73c-5.05,3.11-8.18,7.17-9.31,12.06-2,8.76,2.83,18.19,5.91,23,6.79,10.71,25,26.76,37,26.76h.18c7.31-.1,11.71-3.91,13.39-7.44a8.4,8.4,0,0,0-.81-9,59.31,59.31,0,0,1-11.64-24.33c-2.19-9.58-9.57-18.72-17.94-22.22A19,19,0,0,0,258.71,341.12Z" style="fill:#263238"></path><path d="M256.56,387.49a5.37,5.37,0,0,1-3-1.22c-1.49-1.13-2.67-2.91-1.94-4a1.35,1.35,0,0,1,.93-.57,4.87,4.87,0,0,1,3.33,1.2c1.48,1.12,2.67,2.91,1.94,4h0a1.32,1.32,0,0,1-.93.57A2.07,2.07,0,0,1,256.56,387.49Zm.86-.87h0Zm-4.49-3.95h-.19a.35.35,0,0,0-.27.14c-.24.36.32,1.6,1.71,2.65a4,4,0,0,0,2.56,1,.43.43,0,0,0,.27-.14c.24-.36-.33-1.6-1.72-2.66A4.38,4.38,0,0,0,252.93,382.67Z" style="fill:#263238"></path><path d="M252.13,369.68a3.67,3.67,0,0,1-2.14-.81c-1.34-1-1.9-2.55-1.27-3.49a1.54,1.54,0,0,1,1.07-.67,3.43,3.43,0,0,1,2.52.78c1.34,1,1.9,2.55,1.27,3.5h0a1.59,1.59,0,0,1-1.08.66A2.22,2.22,0,0,1,252.13,369.68Zm-2-4-.21,0a.58.58,0,0,0-.41.23c-.28.43.08,1.41,1,2.15a2.5,2.5,0,0,0,1.74.59.61.61,0,0,0,.42-.24h0c.28-.42-.11-1.43-1.05-2.14A2.68,2.68,0,0,0,250.17,365.68Z" style="fill:#263238"></path><path d="M266.64,359.23a4.93,4.93,0,0,1-2.88-1.06c-1.86-1.41-2.58-3.64-1.64-5.07a2.46,2.46,0,0,1,1.68-1,4.66,4.66,0,0,1,3.43,1c1.86,1.42,2.58,3.64,1.64,5.07a2.46,2.46,0,0,1-1.68,1A3.31,3.31,0,0,1,266.64,359.23ZM264.36,353a2.38,2.38,0,0,0-.39,0,1.51,1.51,0,0,0-1,.62c-.64.95,0,2.65,1.41,3.72a3.68,3.68,0,0,0,2.65.82,1.48,1.48,0,0,0,1-.62c.64-.95,0-2.65-1.41-3.71A3.87,3.87,0,0,0,264.36,353Z" style="fill:#263238"></path><path d="M280,385.7a4.83,4.83,0,0,1-2.88-1c-1.91-1.45-2.62-3.9-1.59-5.46a2.88,2.88,0,0,1,1.94-1.21,4.59,4.59,0,0,1,3.49,1c1.91,1.45,2.62,3.9,1.59,5.46h0a2.85,2.85,0,0,1-1.94,1.21A3.08,3.08,0,0,1,280,385.7ZM278,378.94a3.15,3.15,0,0,0-.44,0,1.85,1.85,0,0,0-1.26.79c-.75,1.12-.14,3,1.35,4.1a3.71,3.71,0,0,0,2.73.81,1.86,1.86,0,0,0,1.26-.78h0c.75-1.13.15-3-1.35-4.11A3.9,3.9,0,0,0,278,378.94Zm4.06,5.22h0Z" style="fill:#263238"></path><path d="M277.55,400.72a5.05,5.05,0,0,1-2.95-1.1c-1.87-1.42-2.63-3.58-1.73-4.92a2.2,2.2,0,0,1,1.53-.95,4.71,4.71,0,0,1,3.48,1.05c1.86,1.42,2.62,3.58,1.73,4.93a2.22,2.22,0,0,1-1.54.95A3,3,0,0,1,277.55,400.72Zm-2.62-6a2,2,0,0,0-.36,0,1.24,1.24,0,0,0-.87.52c-.58.87.11,2.51,1.51,3.57a3.78,3.78,0,0,0,2.7.87,1.29,1.29,0,0,0,.87-.51c.58-.88-.11-2.52-1.51-3.58A4.1,4.1,0,0,0,274.93,394.7Z" style="fill:#263238"></path><path d="M422.22,406.51c-14.74-12.69-34-22.89-59.14-26.31-51.22-7-86.13,14.69-97.8,44.78a212.49,212.49,0,0,0-8.69,28.61C286.32,458.34,365.78,464.31,422.22,406.51Z" style="fill:#BEF264"></path><path d="M293.43,457a236.4,236.4,0,0,1-36.92-2.9.51.51,0,0,1-.34-.21.56.56,0,0,1-.07-.4,212.76,212.76,0,0,1,8.72-28.68c13.08-33.74,51.68-51.44,98.33-45.08a112.71,112.71,0,0,1,59.39,26.42.5.5,0,0,1,.18.36.57.57,0,0,1-.14.37C382.48,447.93,331,457,293.43,457Zm-36.23-3.8c31.32,4.93,108.72,9.91,164.29-46.64A111.79,111.79,0,0,0,363,380.7c-46.17-6.29-84.35,11.16-97.26,44.46A210.21,210.21,0,0,0,257.2,453.18Z" style="fill:#263238"></path><path d="M287.5,432.47c2,3,2,6.37.14,7.62s-5-.13-7-3.09-2-6.38-.15-7.63S285.53,429.5,287.5,432.47Z" style="fill:#BEF264"></path><path d="M286,441.06a5,5,0,0,1-2.05-.48,9.71,9.71,0,0,1-5.34-8,3.66,3.66,0,0,1,5.53-3.67,9.06,9.06,0,0,1,3.73,3.31h0c2.16,3.24,2.16,6.89,0,8.32A3.4,3.4,0,0,1,286,441.06Zm-3.91-11.65a2.38,2.38,0,0,0-1.33.37,3.1,3.1,0,0,0-1.15,2.75,8.77,8.77,0,0,0,4.74,7.14,3.07,3.07,0,0,0,3,0c1.62-1.08,1.49-4.26-.29-6.94a8.13,8.13,0,0,0-3.3-2.95A4.22,4.22,0,0,0,282.13,429.41Z" style="fill:#263238"></path><path d="M320.8,396.87c2,3,2,6.37.15,7.63s-5-.14-7-3.1-2-6.38-.15-7.63S318.84,393.91,320.8,396.87Z" style="fill:#BEF264"></path><path d="M319.35,405.46a5,5,0,0,1-2.06-.48,9.73,9.73,0,0,1-5.33-8,4,4,0,0,1,1.59-3.6c2.15-1.42,5.52,0,7.67,3.24a9.11,9.11,0,0,1,1.6,4.72,4,4,0,0,1-1.59,3.6A3.32,3.32,0,0,1,319.35,405.46Zm-3.89-11.66a2.32,2.32,0,0,0-1.35.39,3,3,0,0,0-1.15,2.74,8.09,8.09,0,0,0,1.44,4.19,8,8,0,0,0,3.3,2.95,2.68,2.68,0,0,0,4.12-2.74,8,8,0,0,0-1.43-4.19C319,395.07,317,393.8,315.46,393.8Z" style="fill:#263238"></path><path d="M324.36,436.17c2,3,2,6.38.15,7.63s-5-.14-7-3.1-2-6.37-.15-7.63S322.4,433.21,324.36,436.17Z" style="fill:#BEF264"></path><path d="M322.91,444.76a5.23,5.23,0,0,1-2.06-.47,9.73,9.73,0,0,1-5.33-8,4,4,0,0,1,1.59-3.6c2.15-1.43,5.52,0,7.67,3.23a9.14,9.14,0,0,1,1.6,4.73,4,4,0,0,1-1.59,3.6A3.39,3.39,0,0,1,322.91,444.76ZM319,433.11a2.39,2.39,0,0,0-1.35.38,3.06,3.06,0,0,0-1.15,2.75,8.15,8.15,0,0,0,1.44,4.19,8,8,0,0,0,3.3,2.94,2.67,2.67,0,0,0,4.12-2.73,8,8,0,0,0-1.43-4.19C322.57,434.37,320.6,433.11,319,433.11Z" style="fill:#263238"></path><path d="M359.81,394.76c2,3,2,6.38.15,7.63s-5-.14-7-3.1-2-6.38-.15-7.63S357.85,391.8,359.81,394.76Z" style="fill:#BEF264"></path><path d="M358.35,403.35a5.19,5.19,0,0,1-2.05-.47,9.13,9.13,0,0,1-3.73-3.31c-2.15-3.24-2.15-6.9,0-8.32s5.52,0,7.67,3.23h0a9.11,9.11,0,0,1,1.6,4.73,4,4,0,0,1-1.59,3.6A3.4,3.4,0,0,1,358.35,403.35Zm-3.92-11.64a2.33,2.33,0,0,0-1.31.37c-1.66,1.1-1.53,4.21.28,6.94a8.06,8.06,0,0,0,3.31,2.94,2.68,2.68,0,0,0,4.12-2.73A8.16,8.16,0,0,0,359.4,395C358,393,356,391.71,354.43,391.71Z" style="fill:#263238"></path><path d="M396.92,411.78c2,3,2,6.38.15,7.63s-5-.14-7-3.1-2-6.38-.15-7.63S395,408.82,396.92,411.78Z" style="fill:#BEF264"></path><path d="M395.46,420.37a5.19,5.19,0,0,1-2-.47,9.73,9.73,0,0,1-5.33-8,4,4,0,0,1,1.59-3.6c2.15-1.43,5.52,0,7.67,3.23h0a9.11,9.11,0,0,1,1.6,4.73,4,4,0,0,1-1.6,3.6A3.34,3.34,0,0,1,395.46,420.37Zm-3.92-11.64a2.37,2.37,0,0,0-1.32.37,3.06,3.06,0,0,0-1.14,2.75,8.68,8.68,0,0,0,4.74,7.13,2.68,2.68,0,0,0,4.12-2.73,8.09,8.09,0,0,0-1.44-4.19h0C395.14,410,393.13,408.73,391.54,408.73Z" style="fill:#263238"></path><ellipse cx="360.46" cy="431.79" rx="4.1" ry="6.44" transform="translate(-178.67 271.44) rotate(-33.58)" style="fill:#BEF264"></ellipse><path d="M362.42,438.11a5,5,0,0,1-2.06-.47,9.06,9.06,0,0,1-3.73-3.31c-2.15-3.24-2.15-6.9,0-8.32s5.52,0,7.67,3.24a9.08,9.08,0,0,1,1.6,4.72,4,4,0,0,1-1.59,3.6A3.39,3.39,0,0,1,362.42,438.11Zm-3.93-11.64a2.33,2.33,0,0,0-1.31.37c-1.66,1.1-1.53,4.21.28,6.94a8.06,8.06,0,0,0,3.31,2.94,2.68,2.68,0,0,0,4.12-2.73,8,8,0,0,0-1.43-4.19C362.09,427.74,360.09,426.47,358.49,426.47Z" style="fill:#263238"></path></g></svg>
