<svg xmlns="http://www.w3.org/2000/svg" xmlns:xlink="http://www.w3.org/1999/xlink" version="1.1" width="940" height="788" viewBox="0 0 940 788" xml:space="preserve">
<desc>Created with Fabric.js 3.5.0</desc>
<defs>
</defs>
<rect x="0" y="0" width="100%" height="100%" fill="rgba(255,255,255,0)"/>
<g transform="matrix(1 0 0 1 470 432.42)" style="" id="444437">
		
</g>
<g transform="matrix(5.2783 0 0 5.2783 478.2921 393.9995)" id="142560">
<path style="stroke: none; stroke-width: 1; stroke-dasharray: none; stroke-linecap: butt; stroke-dashoffset: 0; stroke-linejoin: miter; stroke-miterlimit: 4; is-custom-font: none; font-file-url: none; fill: rgb(63,63,255); fill-rule: nonzero; opacity: 1;" vector-effect="non-scaling-stroke" transform=" translate(-67.5, -67.5)" d="M 67.5 135 C 104.779 135 135 104.779 135 67.5 C 135 30.2208 104.779 0 67.5 0 C 30.2208 0 0 30.2208 0 67.5 C 0 104.779 30.2208 135 67.5 135 Z" stroke-linecap="round"/>
</g>
<g transform="matrix(5.9764 0 0 1.6906 480.1964 194.0739)" id="329280">
<path style="stroke: none; stroke-width: 1; stroke-dasharray: none; stroke-linecap: butt; stroke-dashoffset: 0; stroke-linejoin: miter; stroke-miterlimit: 4; is-custom-font: none; font-file-url: none; fill: rgb(255,255,255); fill-rule: nonzero; opacity: 1;" vector-effect="non-scaling-stroke" transform=" translate(-43.5, -25)" d="M 87 0 H 0 V 50 H 87 V 0 Z" stroke-linecap="round"/>
</g>
<g transform="matrix(5.9764 0 0 1.6906 480.197 590.6113)" id="615975">
<path style="stroke: none; stroke-width: 1; stroke-dasharray: none; stroke-linecap: butt; stroke-dashoffset: 0; stroke-linejoin: miter; stroke-miterlimit: 4; is-custom-font: none; font-file-url: none; fill: rgb(255,255,255); fill-rule: nonzero; opacity: 1;" vector-effect="non-scaling-stroke" transform=" translate(-43.5, -25)" d="M 87 0 H 0 V 50 H 87 V 0 Z" stroke-linecap="round"/>
</g>
<g transform="matrix(5.3681 -4.3284 1.0612 1.3161 479.8245 393.6445)" id="592525">
<path style="stroke: none; stroke-width: 1; stroke-dasharray: none; stroke-linecap: butt; stroke-dashoffset: 0; stroke-linejoin: miter; stroke-miterlimit: 4; is-custom-font: none; font-file-url: none; fill: rgb(255,255,255); fill-rule: nonzero; opacity: 1;" vector-effect="non-scaling-stroke" transform=" translate(-43.5, -25)" d="M 87 0 H 0 V 50 H 87 V 0 Z" stroke-linecap="round"/>
</g>
<g transform="matrix(1 0 0 1 660.9972 451.8449)" id="701246">
<g style="" vector-effect="non-scaling-stroke">
		<g transform="matrix(1 0 0 1 -4.6915 -4.2572)" clip-path="url(#CLIPPATH_6)">
<clipPath id="CLIPPATH_6">
	<rect transform="matrix(1 0 0 1 4.6914 4.2571)" id="clip0_207_93" x="-50" y="-45" rx="0" ry="0" width="100" height="90"/>
</clipPath>
<path style="stroke: none; stroke-width: 1; stroke-dasharray: none; stroke-linecap: butt; stroke-dashoffset: 0; stroke-linejoin: miter; stroke-miterlimit: 4; is-custom-font: none; font-file-url: none; fill: rgb(255,215,0); fill-rule: nonzero; opacity: 0.39;" transform=" translate(-45.3086, -40.7429)" d="M 75.506 39.9351 C 68.0629 39.5091 61.8031 33.9236 56.8203 28.764 C 51.713 23.7053 47.9617 17.4117 45.9202 10.4769 C 45.9139 10.4338 45.8961 10.3934 45.8686 10.36 C 45.8411 10.3266 45.8051 10.3015 45.7645 10.2875 C 45.7142 10.2492 45.6554 10.2239 45.5933 10.2137 C 45.5312 10.2035 45.4675 10.2087 45.4078 10.2289 C 45.3481 10.249 45.2941 10.2836 45.2505 10.3295 C 45.2068 10.3754 45.1748 10.4314 45.1572 10.4926 C 43.0516 17.3249 39.1616 23.4529 33.899 28.2276 C 31.1139 30.7659 28.1066 33.0421 24.9143 35.028 C 21.7981 37.1702 18.4619 38.9637 14.9641 40.3769 C 14.2323 40.6452 14.715 41.7339 15.369 41.3552 L 15.5714 41.2447 C 20.5719 43.2906 25.284 45.9963 29.5857 49.2917 C 33.9897 52.8011 37.7436 57.075 40.6726 61.9144 C 42.2865 64.7244 43.6218 67.6894 44.6589 70.7661 C 44.9704 71.6497 46.3407 71.3026 46.0759 70.3717 C 46.069 70.3299 46.069 70.2872 46.0759 70.2454 C 49.5795 56.2184 61.3048 44.0533 75.4126 41.0238 H 75.506 C 76.1912 41.0238 76.1912 39.9825 75.506 39.9351 Z" stroke-linecap="round"/>
</g>
		<g transform="matrix(1 0 0 1 35.5036 -22.0192)" clip-path="url(#CLIPPATH_7)">
<clipPath id="CLIPPATH_7">
	<rect transform="matrix(1 0 0 1 -35.5035 22.0192)" id="clip0_207_93" x="-50" y="-45" rx="0" ry="0" width="100" height="90"/>
</clipPath>
<path style="stroke: none; stroke-width: 1; stroke-dasharray: none; stroke-linecap: butt; stroke-dashoffset: 0; stroke-linejoin: miter; stroke-miterlimit: 4; is-custom-font: none; font-file-url: none; fill: rgb(255,215,0); fill-rule: nonzero; opacity: 0.39;" transform=" translate(-85.5035, -22.9808)" d="M 99.7664 22.5947 C 96.2317 22.3895 93.2731 19.7545 90.9218 17.3089 C 88.4938 14.9131 86.7045 11.9329 85.721 8.64655 C 85.7305 8.62115 85.7305 8.59306 85.721 8.56766 C 85.697 8.54828 85.6687 8.53518 85.6386 8.5295 C 85.6084 8.52382 85.5774 8.52574 85.5481 8.53509 C 85.5189 8.54445 85.4924 8.56095 85.4709 8.58314 C 85.4495 8.60533 85.4337 8.63252 85.4251 8.66233 C 84.4227 11.8926 82.5836 14.7913 80.0997 17.0564 C 78.78 18.2367 77.3571 19.2929 75.8486 20.2121 C 74.3851 21.2248 72.8191 22.0764 71.1772 22.7524 C 70.8346 22.8629 71.0682 23.3836 71.3796 23.21 H 71.4731 C 73.8512 24.179 76.0923 25.463 78.1377 27.0284 C 80.2273 28.686 82.0049 30.7117 83.3852 33.0084 C 84.1562 34.3336 84.7926 35.7345 85.285 37.1897 C 85.4251 37.6157 86.0791 37.4421 85.9545 37.0161 C 86.7901 33.6627 88.5046 30.6006 90.9168 28.1536 C 93.3289 25.7066 96.349 23.9658 99.6574 23.1153 V 23.1153 C 100.093 23.1311 100.093 22.6262 99.7664 22.5947 Z" stroke-linecap="round"/>
</g>
		<g transform="matrix(1 0 0 1 -35.0625 -33.4853)" clip-path="url(#CLIPPATH_8)">
<clipPath id="CLIPPATH_8">
	<rect transform="matrix(1 0 0 1 35.0625 33.4853)" id="clip0_207_93" x="-50" y="-45" rx="0" ry="0" width="100" height="90"/>
</clipPath>
<path style="stroke: none; stroke-width: 1; stroke-dasharray: none; stroke-linecap: butt; stroke-dashoffset: 0; stroke-linejoin: miter; stroke-miterlimit: 4; is-custom-font: none; font-file-url: none; fill: rgb(255,215,0); fill-rule: nonzero; opacity: 0.39;" transform=" translate(-14.9375, -11.5147)" d="M 26.3157 11.1869 C 23.5129 11.0291 21.146 8.91479 19.2774 6.97405 C 17.3479 5.07304 15.9279 2.70555 15.151 0.094667 C 15.151 0.094667 15.151 0.094667 15.151 0.094667 C 15.1312 0.0812697 15.1087 0.0726301 15.0852 0.0694102 C 15.0616 0.0661902 15.0377 0.0684752 15.0151 0.0760901 C 14.9926 0.0837051 14.972 0.096448 14.9551 0.113343 C 14.9382 0.130237 14.9253 0.150835 14.9174 0.173559 C 14.104 2.72798 12.6244 5.01221 10.6353 6.78471 C 9.58468 7.735 8.45402 8.5903 7.25625 9.34081 C 6.07909 10.1462 4.82119 10.8231 3.50353 11.3604 C 3.23881 11.4551 3.4101 11.8654 3.65924 11.7233 C 5.5762 12.4742 7.38759 13.4768 9.04697 14.7055 C 10.6972 16.0228 12.1047 17.6253 13.2046 19.439 C 13.837 20.4906 14.3589 21.6064 14.7617 22.7682 C 14.8863 23.0996 15.4001 22.9733 15.2911 22.6262 C 15.9689 19.9433 17.3545 17.4979 19.2994 15.5521 C 21.2443 13.6064 23.6751 12.2337 26.3313 11.5813 V 11.5813 C 26.5649 11.6129 26.5649 11.2027 26.3157 11.1869 Z" stroke-linecap="round"/>
</g>
		<g transform="matrix(1 0 0 1 23.8829 18.3031)" clip-path="url(#CLIPPATH_9)">
<clipPath id="CLIPPATH_9">
	<rect transform="matrix(1 0 0 1 -23.8829 -18.3031)" id="clip0_207_93" x="-50" y="-45" rx="0" ry="0" width="100" height="90"/>
</clipPath>
<path style="stroke: none; stroke-width: 1; stroke-dasharray: none; stroke-linecap: butt; stroke-dashoffset: 0; stroke-linejoin: miter; stroke-miterlimit: 4; is-custom-font: none; font-file-url: none; fill: rgb(255,215,0); fill-rule: nonzero; opacity: 0.39;" transform=" translate(-73.8829, -63.3031)" d="M 81.6412 63.1136 C 79.7508 62.7801 78.0455 61.759 76.8452 60.2419 C 75.5249 58.9317 74.5551 57.3028 74.0268 55.5084 C 74.0268 55.5084 74.0268 55.5084 74.0268 55.5084 C 74.0166 55.4953 74.0036 55.4847 73.9888 55.4774 C 73.9739 55.4701 73.9576 55.4663 73.9412 55.4663 C 73.9247 55.4663 73.9084 55.4701 73.8936 55.4774 C 73.8787 55.4847 73.8657 55.4953 73.8555 55.5084 C 73.3129 57.2611 72.3185 58.8353 70.9748 60.0684 C 70.2572 60.7129 69.4862 61.2936 68.6702 61.804 C 67.8704 62.3537 67.0142 62.814 66.1165 63.1767 C 66.0955 63.1803 66.0756 63.1887 66.0583 63.2013 C 66.041 63.2139 66.0267 63.2303 66.0166 63.2492 C 66.0065 63.2682 66.0008 63.2893 65.9999 63.3108 C 65.999 63.3324 66.003 63.3539 66.0115 63.3736 C 66.02 63.3934 66.0329 63.4109 66.0491 63.4249 C 66.0654 63.4389 66.0845 63.4489 66.1051 63.4543 C 66.1258 63.4596 66.1473 63.4602 66.1682 63.4558 C 66.189 63.4515 66.2086 63.4424 66.2255 63.4292 C 67.517 63.9584 68.7363 64.6531 69.8536 65.4961 C 70.9701 66.3754 71.9287 67.4429 72.6877 68.6518 C 73.1157 69.3963 73.4653 70.1843 73.7309 71.0028 C 73.7309 71.2395 74.1669 71.1448 74.0891 70.9081 C 74.5573 69.0868 75.5039 67.4281 76.8282 66.1084 C 78.1526 64.7887 79.8051 63.8574 81.6101 63.4134 V 63.4134 C 81.8125 63.3661 81.8125 63.1136 81.6412 63.1136 Z" stroke-linecap="round"/>
</g>
		<g transform="matrix(1 0 0 1 -35.3913 30.5427)" clip-path="url(#CLIPPATH_10)">
<clipPath id="CLIPPATH_10">
	<rect transform="matrix(1 0 0 1 35.3913 -30.5427)" id="clip0_207_93" x="-50" y="-45" rx="0" ry="0" width="100" height="90"/>
</clipPath>
<path style="stroke: none; stroke-width: 1; stroke-dasharray: none; stroke-linecap: butt; stroke-dashoffset: 0; stroke-linejoin: miter; stroke-miterlimit: 4; is-custom-font: none; font-file-url: none; fill: rgb(255,215,0); fill-rule: nonzero; opacity: 0.39;" transform=" translate(-14.6087, -75.5427)" d="M 28.8539 75.1683 C 25.3348 74.9632 22.3762 72.3124 20.0249 69.8668 C 17.5871 67.485 15.796 64.5072 14.824 61.2202 C 14.8336 61.1894 14.8336 61.1563 14.824 61.1255 C 14.8001 61.1061 14.7718 61.093 14.7416 61.0874 C 14.7115 61.0817 14.6804 61.0836 14.6512 61.093 C 14.622 61.1023 14.5954 61.1188 14.574 61.141 C 14.5525 61.1632 14.5368 61.1904 14.5282 61.2202 C 13.5399 64.4571 11.6986 67.3594 9.20271 69.6143 C 7.89159 70.7983 6.47354 71.8549 4.96727 72.77 C 3.50724 73.7886 1.94058 74.6405 0.295832 75.3103 C -0.0467402 75.4365 0.17126 75.9572 0.48269 75.7679 L 0.467118 75.7363 C 2.84166 76.7063 5.08191 77.9845 7.13171 79.5389 C 9.25356 81.2034 11.0582 83.2459 12.4572 85.5663 C 13.2232 86.8974 13.8544 88.3035 14.3413 89.7633 C 14.497 90.1736 15.151 90.0158 15.0109 89.574 C 15.8699 86.2209 17.6067 83.1651 20.0378 80.7295 C 22.4689 78.2938 25.5041 76.5687 28.8228 75.7363 V 75.7363 C 29.1809 75.7363 29.1809 75.1841 28.8539 75.1683 Z" stroke-linecap="round"/>
</g>
</g>
</g>
</svg>